<mxfile host="Electron" modified="2024-01-02T05:28:31.109Z" agent="Mozilla/5.0 (Windows NT 10.0; Win64; x64) AppleWebKit/537.36 (KHTML, like Gecko) draw.io/21.6.8 Chrome/114.0.5735.289 Electron/25.5.0 Safari/537.36" etag="tXM7MY5o0y2zuaiShLt6" version="21.6.8" type="device">
  <diagram name="第 1 页" id="xOff-upf4avmdJuIIjFe">
    <mxGraphModel dx="1953" dy="1136" grid="1" gridSize="10" guides="1" tooltips="1" connect="1" arrows="1" fold="1" page="1" pageScale="1" pageWidth="827" pageHeight="1169" math="0" shadow="0">
      <root>
        <mxCell id="0" />
        <mxCell id="1" parent="0" />
        <mxCell id="xaQ81cR3nCLJtU9Fbe_--717" value="1" style="rounded=0;whiteSpace=wrap;html=1;fillColor=#f8cecc;strokeColor=#b85450;" vertex="1" parent="1">
          <mxGeometry x="90" y="890" width="50" height="20" as="geometry" />
        </mxCell>
        <mxCell id="xaQ81cR3nCLJtU9Fbe_--389" value="" style="group" vertex="1" connectable="0" parent="1">
          <mxGeometry x="80" y="240" width="880" height="670" as="geometry" />
        </mxCell>
        <mxCell id="xaQ81cR3nCLJtU9Fbe_--718" value="2" style="rounded=0;whiteSpace=wrap;html=1;fillColor=#f8cecc;strokeColor=#b85450;" vertex="1" parent="xaQ81cR3nCLJtU9Fbe_--389">
          <mxGeometry x="60" y="650" width="30" height="20" as="geometry" />
        </mxCell>
        <mxCell id="xaQ81cR3nCLJtU9Fbe_--387" value="" style="rounded=0;whiteSpace=wrap;html=1;fillColor=#dae8fc;strokeColor=#ababab;" vertex="1" parent="xaQ81cR3nCLJtU9Fbe_--389">
          <mxGeometry x="480" width="390" height="640" as="geometry" />
        </mxCell>
        <mxCell id="xaQ81cR3nCLJtU9Fbe_--302" value="" style="rounded=0;whiteSpace=wrap;html=1;fillColor=#d5e8d4;strokeColor=#82b366;" vertex="1" parent="xaQ81cR3nCLJtU9Fbe_--389">
          <mxGeometry x="260" y="320" width="210" height="320" as="geometry" />
        </mxCell>
        <mxCell id="xaQ81cR3nCLJtU9Fbe_--301" value="" style="rounded=0;whiteSpace=wrap;html=1;fillColor=#dae8fc;strokeColor=#ababab;" vertex="1" parent="xaQ81cR3nCLJtU9Fbe_--389">
          <mxGeometry x="260" width="210" height="320" as="geometry" />
        </mxCell>
        <mxCell id="xaQ81cR3nCLJtU9Fbe_--219" value="" style="rounded=0;whiteSpace=wrap;html=1;fillColor=#d5e8d4;strokeColor=#82b366;" vertex="1" parent="xaQ81cR3nCLJtU9Fbe_--389">
          <mxGeometry x="130" y="160" width="120" height="160" as="geometry" />
        </mxCell>
        <mxCell id="xaQ81cR3nCLJtU9Fbe_--221" value="" style="rounded=0;whiteSpace=wrap;html=1;fillColor=#dae8fc;strokeColor=#ababab;" vertex="1" parent="xaQ81cR3nCLJtU9Fbe_--389">
          <mxGeometry x="130" y="320" width="120" height="160" as="geometry" />
        </mxCell>
        <mxCell id="xaQ81cR3nCLJtU9Fbe_--222" value="" style="rounded=0;whiteSpace=wrap;html=1;fillColor=#d5e8d4;strokeColor=#82b366;" vertex="1" parent="xaQ81cR3nCLJtU9Fbe_--389">
          <mxGeometry x="130" y="480" width="120" height="160" as="geometry" />
        </mxCell>
        <mxCell id="xaQ81cR3nCLJtU9Fbe_--217" value="" style="rounded=0;whiteSpace=wrap;html=1;fillColor=#dae8fc;strokeColor=#ababab;" vertex="1" parent="xaQ81cR3nCLJtU9Fbe_--389">
          <mxGeometry x="130" width="120" height="160" as="geometry" />
        </mxCell>
        <mxCell id="xaQ81cR3nCLJtU9Fbe_--139" value="" style="rounded=0;whiteSpace=wrap;html=1;fillColor=#dae8fc;strokeColor=#ababab;" vertex="1" parent="xaQ81cR3nCLJtU9Fbe_--389">
          <mxGeometry x="10" width="40" height="40" as="geometry" />
        </mxCell>
        <mxCell id="xaQ81cR3nCLJtU9Fbe_--140" value="" style="rounded=0;whiteSpace=wrap;html=1;fillColor=#d5e8d4;strokeColor=#ababab;" vertex="1" parent="xaQ81cR3nCLJtU9Fbe_--389">
          <mxGeometry x="10" y="40" width="40" height="40" as="geometry" />
        </mxCell>
        <mxCell id="xaQ81cR3nCLJtU9Fbe_--143" value="" style="rounded=0;whiteSpace=wrap;html=1;fillColor=#dae8fc;strokeColor=#ababab;" vertex="1" parent="xaQ81cR3nCLJtU9Fbe_--389">
          <mxGeometry x="10" y="80" width="40" height="40" as="geometry" />
        </mxCell>
        <mxCell id="xaQ81cR3nCLJtU9Fbe_--144" value="" style="rounded=0;whiteSpace=wrap;html=1;fillColor=#dae8fc;strokeColor=#ababab;" vertex="1" parent="xaQ81cR3nCLJtU9Fbe_--389">
          <mxGeometry x="10" y="160" width="40" height="40" as="geometry" />
        </mxCell>
        <mxCell id="xaQ81cR3nCLJtU9Fbe_--145" value="" style="rounded=0;whiteSpace=wrap;html=1;fillColor=#dae8fc;strokeColor=#ababab;" vertex="1" parent="xaQ81cR3nCLJtU9Fbe_--389">
          <mxGeometry x="10" y="240" width="40" height="40" as="geometry" />
        </mxCell>
        <mxCell id="xaQ81cR3nCLJtU9Fbe_--146" value="" style="rounded=0;whiteSpace=wrap;html=1;fillColor=#dae8fc;strokeColor=#ababab;" vertex="1" parent="xaQ81cR3nCLJtU9Fbe_--389">
          <mxGeometry x="10" y="320" width="40" height="40" as="geometry" />
        </mxCell>
        <mxCell id="xaQ81cR3nCLJtU9Fbe_--147" value="" style="rounded=0;whiteSpace=wrap;html=1;fillColor=#dae8fc;strokeColor=#ababab;" vertex="1" parent="xaQ81cR3nCLJtU9Fbe_--389">
          <mxGeometry x="10" y="400" width="40" height="40" as="geometry" />
        </mxCell>
        <mxCell id="xaQ81cR3nCLJtU9Fbe_--148" value="" style="rounded=0;whiteSpace=wrap;html=1;fillColor=#dae8fc;strokeColor=#ababab;" vertex="1" parent="xaQ81cR3nCLJtU9Fbe_--389">
          <mxGeometry x="10" y="480" width="40" height="40" as="geometry" />
        </mxCell>
        <mxCell id="xaQ81cR3nCLJtU9Fbe_--149" value="" style="rounded=0;whiteSpace=wrap;html=1;fillColor=#dae8fc;strokeColor=#ababab;" vertex="1" parent="xaQ81cR3nCLJtU9Fbe_--389">
          <mxGeometry x="10" y="560" width="40" height="40" as="geometry" />
        </mxCell>
        <mxCell id="xaQ81cR3nCLJtU9Fbe_--151" value="" style="rounded=0;whiteSpace=wrap;html=1;fillColor=#d5e8d4;strokeColor=#ababab;" vertex="1" parent="xaQ81cR3nCLJtU9Fbe_--389">
          <mxGeometry x="10" y="120" width="40" height="40" as="geometry" />
        </mxCell>
        <mxCell id="xaQ81cR3nCLJtU9Fbe_--152" value="" style="rounded=0;whiteSpace=wrap;html=1;fillColor=#d5e8d4;strokeColor=#ababab;" vertex="1" parent="xaQ81cR3nCLJtU9Fbe_--389">
          <mxGeometry x="10" y="200" width="40" height="40" as="geometry" />
        </mxCell>
        <mxCell id="xaQ81cR3nCLJtU9Fbe_--154" value="" style="rounded=0;whiteSpace=wrap;html=1;fillColor=#d5e8d4;strokeColor=#ababab;" vertex="1" parent="xaQ81cR3nCLJtU9Fbe_--389">
          <mxGeometry x="10" y="280" width="40" height="40" as="geometry" />
        </mxCell>
        <mxCell id="xaQ81cR3nCLJtU9Fbe_--155" value="" style="rounded=0;whiteSpace=wrap;html=1;fillColor=#d5e8d4;strokeColor=#ababab;" vertex="1" parent="xaQ81cR3nCLJtU9Fbe_--389">
          <mxGeometry x="10" y="360" width="40" height="40" as="geometry" />
        </mxCell>
        <mxCell id="xaQ81cR3nCLJtU9Fbe_--156" value="" style="rounded=0;whiteSpace=wrap;html=1;fillColor=#d5e8d4;strokeColor=#ababab;" vertex="1" parent="xaQ81cR3nCLJtU9Fbe_--389">
          <mxGeometry x="10" y="440" width="40" height="40" as="geometry" />
        </mxCell>
        <mxCell id="xaQ81cR3nCLJtU9Fbe_--157" value="" style="rounded=0;whiteSpace=wrap;html=1;fillColor=#d5e8d4;strokeColor=#ababab;" vertex="1" parent="xaQ81cR3nCLJtU9Fbe_--389">
          <mxGeometry x="10" y="520" width="40" height="40" as="geometry" />
        </mxCell>
        <mxCell id="xaQ81cR3nCLJtU9Fbe_--158" value="" style="rounded=0;whiteSpace=wrap;html=1;fillColor=#d5e8d4;strokeColor=#ababab;" vertex="1" parent="xaQ81cR3nCLJtU9Fbe_--389">
          <mxGeometry x="10" y="600" width="40" height="40" as="geometry" />
        </mxCell>
        <mxCell id="xaQ81cR3nCLJtU9Fbe_--159" value="" style="rounded=0;whiteSpace=wrap;html=1;fillColor=#dae8fc;strokeColor=#ababab;" vertex="1" parent="xaQ81cR3nCLJtU9Fbe_--389">
          <mxGeometry x="60" width="60" height="80" as="geometry" />
        </mxCell>
        <mxCell id="xaQ81cR3nCLJtU9Fbe_--160" value="" style="rounded=0;whiteSpace=wrap;html=1;fillColor=#d5e8d4;strokeColor=#ababab;" vertex="1" parent="xaQ81cR3nCLJtU9Fbe_--389">
          <mxGeometry x="60" y="80" width="60" height="80" as="geometry" />
        </mxCell>
        <mxCell id="xaQ81cR3nCLJtU9Fbe_--161" value="" style="rounded=0;whiteSpace=wrap;html=1;fillColor=#dae8fc;strokeColor=#ababab;" vertex="1" parent="xaQ81cR3nCLJtU9Fbe_--389">
          <mxGeometry x="60" y="160" width="60" height="80" as="geometry" />
        </mxCell>
        <mxCell id="xaQ81cR3nCLJtU9Fbe_--162" value="" style="rounded=0;whiteSpace=wrap;html=1;fillColor=#d5e8d4;strokeColor=#ababab;" vertex="1" parent="xaQ81cR3nCLJtU9Fbe_--389">
          <mxGeometry x="60" y="240" width="60" height="80" as="geometry" />
        </mxCell>
        <mxCell id="xaQ81cR3nCLJtU9Fbe_--165" value="" style="rounded=0;whiteSpace=wrap;html=1;fillColor=#dae8fc;strokeColor=#ababab;" vertex="1" parent="xaQ81cR3nCLJtU9Fbe_--389">
          <mxGeometry x="60" y="320" width="60" height="80" as="geometry" />
        </mxCell>
        <mxCell id="xaQ81cR3nCLJtU9Fbe_--166" value="" style="rounded=0;whiteSpace=wrap;html=1;fillColor=#d5e8d4;strokeColor=#ababab;" vertex="1" parent="xaQ81cR3nCLJtU9Fbe_--389">
          <mxGeometry x="60" y="400" width="60" height="80" as="geometry" />
        </mxCell>
        <mxCell id="xaQ81cR3nCLJtU9Fbe_--167" value="" style="rounded=0;whiteSpace=wrap;html=1;fillColor=#dae8fc;strokeColor=#ababab;" vertex="1" parent="xaQ81cR3nCLJtU9Fbe_--389">
          <mxGeometry x="60" y="480" width="60" height="80" as="geometry" />
        </mxCell>
        <mxCell id="xaQ81cR3nCLJtU9Fbe_--168" value="" style="rounded=0;whiteSpace=wrap;html=1;fillColor=#d5e8d4;strokeColor=#ababab;" vertex="1" parent="xaQ81cR3nCLJtU9Fbe_--389">
          <mxGeometry x="60" y="560" width="60" height="80" as="geometry" />
        </mxCell>
        <mxCell id="xaQ81cR3nCLJtU9Fbe_--47" value="" style="endArrow=none;html=1;rounded=0;" edge="1" parent="xaQ81cR3nCLJtU9Fbe_--389">
          <mxGeometry width="50" height="50" relative="1" as="geometry">
            <mxPoint y="10" as="sourcePoint" />
            <mxPoint x="880" y="10" as="targetPoint" />
          </mxGeometry>
        </mxCell>
        <mxCell id="xaQ81cR3nCLJtU9Fbe_--48" value="" style="endArrow=none;html=1;rounded=0;" edge="1" parent="xaQ81cR3nCLJtU9Fbe_--389">
          <mxGeometry width="50" height="50" relative="1" as="geometry">
            <mxPoint y="30" as="sourcePoint" />
            <mxPoint x="880" y="30" as="targetPoint" />
          </mxGeometry>
        </mxCell>
        <mxCell id="xaQ81cR3nCLJtU9Fbe_--49" value="" style="endArrow=none;html=1;rounded=0;" edge="1" parent="xaQ81cR3nCLJtU9Fbe_--389">
          <mxGeometry width="50" height="50" relative="1" as="geometry">
            <mxPoint y="50" as="sourcePoint" />
            <mxPoint x="880" y="50" as="targetPoint" />
          </mxGeometry>
        </mxCell>
        <mxCell id="xaQ81cR3nCLJtU9Fbe_--50" value="" style="endArrow=none;html=1;rounded=0;" edge="1" parent="xaQ81cR3nCLJtU9Fbe_--389">
          <mxGeometry width="50" height="50" relative="1" as="geometry">
            <mxPoint y="70" as="sourcePoint" />
            <mxPoint x="880" y="70" as="targetPoint" />
          </mxGeometry>
        </mxCell>
        <mxCell id="xaQ81cR3nCLJtU9Fbe_--52" value="" style="endArrow=none;html=1;rounded=0;" edge="1" parent="xaQ81cR3nCLJtU9Fbe_--389">
          <mxGeometry width="50" height="50" relative="1" as="geometry">
            <mxPoint y="90" as="sourcePoint" />
            <mxPoint x="880" y="90" as="targetPoint" />
          </mxGeometry>
        </mxCell>
        <mxCell id="xaQ81cR3nCLJtU9Fbe_--53" value="" style="endArrow=none;html=1;rounded=0;" edge="1" parent="xaQ81cR3nCLJtU9Fbe_--389">
          <mxGeometry width="50" height="50" relative="1" as="geometry">
            <mxPoint y="110" as="sourcePoint" />
            <mxPoint x="880" y="110" as="targetPoint" />
          </mxGeometry>
        </mxCell>
        <mxCell id="xaQ81cR3nCLJtU9Fbe_--54" value="" style="endArrow=none;html=1;rounded=0;" edge="1" parent="xaQ81cR3nCLJtU9Fbe_--389">
          <mxGeometry width="50" height="50" relative="1" as="geometry">
            <mxPoint y="130" as="sourcePoint" />
            <mxPoint x="880" y="130" as="targetPoint" />
          </mxGeometry>
        </mxCell>
        <mxCell id="xaQ81cR3nCLJtU9Fbe_--55" value="" style="endArrow=none;html=1;rounded=0;" edge="1" parent="xaQ81cR3nCLJtU9Fbe_--389">
          <mxGeometry width="50" height="50" relative="1" as="geometry">
            <mxPoint y="150" as="sourcePoint" />
            <mxPoint x="880" y="150" as="targetPoint" />
          </mxGeometry>
        </mxCell>
        <mxCell id="xaQ81cR3nCLJtU9Fbe_--56" value="" style="endArrow=none;html=1;rounded=0;" edge="1" parent="xaQ81cR3nCLJtU9Fbe_--389">
          <mxGeometry width="50" height="50" relative="1" as="geometry">
            <mxPoint y="170" as="sourcePoint" />
            <mxPoint x="880" y="170" as="targetPoint" />
          </mxGeometry>
        </mxCell>
        <mxCell id="xaQ81cR3nCLJtU9Fbe_--57" value="" style="endArrow=none;html=1;rounded=0;" edge="1" parent="xaQ81cR3nCLJtU9Fbe_--389">
          <mxGeometry width="50" height="50" relative="1" as="geometry">
            <mxPoint y="190" as="sourcePoint" />
            <mxPoint x="880" y="190" as="targetPoint" />
          </mxGeometry>
        </mxCell>
        <mxCell id="xaQ81cR3nCLJtU9Fbe_--58" value="" style="endArrow=none;html=1;rounded=0;" edge="1" parent="xaQ81cR3nCLJtU9Fbe_--389">
          <mxGeometry width="50" height="50" relative="1" as="geometry">
            <mxPoint y="210" as="sourcePoint" />
            <mxPoint x="880" y="210" as="targetPoint" />
          </mxGeometry>
        </mxCell>
        <mxCell id="xaQ81cR3nCLJtU9Fbe_--59" value="" style="endArrow=none;html=1;rounded=0;" edge="1" parent="xaQ81cR3nCLJtU9Fbe_--389">
          <mxGeometry width="50" height="50" relative="1" as="geometry">
            <mxPoint y="230" as="sourcePoint" />
            <mxPoint x="880" y="230" as="targetPoint" />
          </mxGeometry>
        </mxCell>
        <mxCell id="xaQ81cR3nCLJtU9Fbe_--60" value="" style="endArrow=none;html=1;rounded=0;" edge="1" parent="xaQ81cR3nCLJtU9Fbe_--389">
          <mxGeometry width="50" height="50" relative="1" as="geometry">
            <mxPoint y="250" as="sourcePoint" />
            <mxPoint x="880" y="250" as="targetPoint" />
          </mxGeometry>
        </mxCell>
        <mxCell id="xaQ81cR3nCLJtU9Fbe_--61" value="" style="endArrow=none;html=1;rounded=0;" edge="1" parent="xaQ81cR3nCLJtU9Fbe_--389">
          <mxGeometry width="50" height="50" relative="1" as="geometry">
            <mxPoint y="270" as="sourcePoint" />
            <mxPoint x="880" y="270" as="targetPoint" />
          </mxGeometry>
        </mxCell>
        <mxCell id="xaQ81cR3nCLJtU9Fbe_--62" value="" style="endArrow=none;html=1;rounded=0;" edge="1" parent="xaQ81cR3nCLJtU9Fbe_--389">
          <mxGeometry width="50" height="50" relative="1" as="geometry">
            <mxPoint y="290" as="sourcePoint" />
            <mxPoint x="880" y="290" as="targetPoint" />
          </mxGeometry>
        </mxCell>
        <mxCell id="xaQ81cR3nCLJtU9Fbe_--63" value="" style="endArrow=none;html=1;rounded=0;" edge="1" parent="xaQ81cR3nCLJtU9Fbe_--389">
          <mxGeometry width="50" height="50" relative="1" as="geometry">
            <mxPoint y="310" as="sourcePoint" />
            <mxPoint x="880" y="310" as="targetPoint" />
          </mxGeometry>
        </mxCell>
        <mxCell id="xaQ81cR3nCLJtU9Fbe_--64" value="" style="endArrow=none;html=1;rounded=0;" edge="1" parent="xaQ81cR3nCLJtU9Fbe_--389">
          <mxGeometry width="50" height="50" relative="1" as="geometry">
            <mxPoint y="330" as="sourcePoint" />
            <mxPoint x="880" y="330" as="targetPoint" />
          </mxGeometry>
        </mxCell>
        <mxCell id="xaQ81cR3nCLJtU9Fbe_--65" value="" style="endArrow=none;html=1;rounded=0;" edge="1" parent="xaQ81cR3nCLJtU9Fbe_--389">
          <mxGeometry width="50" height="50" relative="1" as="geometry">
            <mxPoint y="350" as="sourcePoint" />
            <mxPoint x="880" y="350" as="targetPoint" />
          </mxGeometry>
        </mxCell>
        <mxCell id="xaQ81cR3nCLJtU9Fbe_--66" value="" style="endArrow=none;html=1;rounded=0;" edge="1" parent="xaQ81cR3nCLJtU9Fbe_--389">
          <mxGeometry width="50" height="50" relative="1" as="geometry">
            <mxPoint y="370" as="sourcePoint" />
            <mxPoint x="880" y="370" as="targetPoint" />
          </mxGeometry>
        </mxCell>
        <mxCell id="xaQ81cR3nCLJtU9Fbe_--67" value="" style="endArrow=none;html=1;rounded=0;" edge="1" parent="xaQ81cR3nCLJtU9Fbe_--389">
          <mxGeometry width="50" height="50" relative="1" as="geometry">
            <mxPoint y="390" as="sourcePoint" />
            <mxPoint x="880" y="390" as="targetPoint" />
          </mxGeometry>
        </mxCell>
        <mxCell id="xaQ81cR3nCLJtU9Fbe_--68" value="" style="endArrow=none;html=1;rounded=0;" edge="1" parent="xaQ81cR3nCLJtU9Fbe_--389">
          <mxGeometry width="50" height="50" relative="1" as="geometry">
            <mxPoint y="410" as="sourcePoint" />
            <mxPoint x="880" y="410" as="targetPoint" />
          </mxGeometry>
        </mxCell>
        <mxCell id="xaQ81cR3nCLJtU9Fbe_--69" value="" style="endArrow=none;html=1;rounded=0;" edge="1" parent="xaQ81cR3nCLJtU9Fbe_--389">
          <mxGeometry width="50" height="50" relative="1" as="geometry">
            <mxPoint y="430" as="sourcePoint" />
            <mxPoint x="880" y="430" as="targetPoint" />
          </mxGeometry>
        </mxCell>
        <mxCell id="xaQ81cR3nCLJtU9Fbe_--70" value="" style="endArrow=none;html=1;rounded=0;" edge="1" parent="xaQ81cR3nCLJtU9Fbe_--389">
          <mxGeometry width="50" height="50" relative="1" as="geometry">
            <mxPoint y="450" as="sourcePoint" />
            <mxPoint x="880" y="450" as="targetPoint" />
          </mxGeometry>
        </mxCell>
        <mxCell id="xaQ81cR3nCLJtU9Fbe_--71" value="" style="endArrow=none;html=1;rounded=0;" edge="1" parent="xaQ81cR3nCLJtU9Fbe_--389">
          <mxGeometry width="50" height="50" relative="1" as="geometry">
            <mxPoint y="470" as="sourcePoint" />
            <mxPoint x="880" y="470" as="targetPoint" />
          </mxGeometry>
        </mxCell>
        <mxCell id="xaQ81cR3nCLJtU9Fbe_--72" value="" style="endArrow=none;html=1;rounded=0;" edge="1" parent="xaQ81cR3nCLJtU9Fbe_--389">
          <mxGeometry width="50" height="50" relative="1" as="geometry">
            <mxPoint y="490" as="sourcePoint" />
            <mxPoint x="880" y="490" as="targetPoint" />
          </mxGeometry>
        </mxCell>
        <mxCell id="xaQ81cR3nCLJtU9Fbe_--73" value="" style="endArrow=none;html=1;rounded=0;" edge="1" parent="xaQ81cR3nCLJtU9Fbe_--389">
          <mxGeometry width="50" height="50" relative="1" as="geometry">
            <mxPoint y="510" as="sourcePoint" />
            <mxPoint x="880" y="510" as="targetPoint" />
          </mxGeometry>
        </mxCell>
        <mxCell id="xaQ81cR3nCLJtU9Fbe_--74" value="" style="endArrow=none;html=1;rounded=0;" edge="1" parent="xaQ81cR3nCLJtU9Fbe_--389">
          <mxGeometry width="50" height="50" relative="1" as="geometry">
            <mxPoint y="530" as="sourcePoint" />
            <mxPoint x="880" y="530" as="targetPoint" />
          </mxGeometry>
        </mxCell>
        <mxCell id="xaQ81cR3nCLJtU9Fbe_--75" value="" style="endArrow=none;html=1;rounded=0;" edge="1" parent="xaQ81cR3nCLJtU9Fbe_--389">
          <mxGeometry width="50" height="50" relative="1" as="geometry">
            <mxPoint y="550" as="sourcePoint" />
            <mxPoint x="880" y="550" as="targetPoint" />
          </mxGeometry>
        </mxCell>
        <mxCell id="xaQ81cR3nCLJtU9Fbe_--76" value="" style="endArrow=none;html=1;rounded=0;" edge="1" parent="xaQ81cR3nCLJtU9Fbe_--389">
          <mxGeometry width="50" height="50" relative="1" as="geometry">
            <mxPoint y="570" as="sourcePoint" />
            <mxPoint x="880" y="570" as="targetPoint" />
          </mxGeometry>
        </mxCell>
        <mxCell id="xaQ81cR3nCLJtU9Fbe_--77" value="" style="endArrow=none;html=1;rounded=0;" edge="1" parent="xaQ81cR3nCLJtU9Fbe_--389">
          <mxGeometry width="50" height="50" relative="1" as="geometry">
            <mxPoint y="590" as="sourcePoint" />
            <mxPoint x="880" y="590" as="targetPoint" />
          </mxGeometry>
        </mxCell>
        <mxCell id="xaQ81cR3nCLJtU9Fbe_--78" value="" style="endArrow=none;html=1;rounded=0;" edge="1" parent="xaQ81cR3nCLJtU9Fbe_--389">
          <mxGeometry width="50" height="50" relative="1" as="geometry">
            <mxPoint y="610" as="sourcePoint" />
            <mxPoint x="880" y="610" as="targetPoint" />
          </mxGeometry>
        </mxCell>
        <mxCell id="xaQ81cR3nCLJtU9Fbe_--79" value="" style="endArrow=none;html=1;rounded=0;" edge="1" parent="xaQ81cR3nCLJtU9Fbe_--389">
          <mxGeometry width="50" height="50" relative="1" as="geometry">
            <mxPoint y="630" as="sourcePoint" />
            <mxPoint x="880" y="630" as="targetPoint" />
          </mxGeometry>
        </mxCell>
        <mxCell id="xaQ81cR3nCLJtU9Fbe_--80" value="" style="endArrow=classic;html=1;rounded=0;" edge="1" parent="xaQ81cR3nCLJtU9Fbe_--389">
          <mxGeometry width="50" height="50" relative="1" as="geometry">
            <mxPoint x="30" y="10" as="sourcePoint" />
            <mxPoint x="30" y="30" as="targetPoint" />
          </mxGeometry>
        </mxCell>
        <mxCell id="xaQ81cR3nCLJtU9Fbe_--81" value="" style="endArrow=classic;html=1;rounded=0;" edge="1" parent="xaQ81cR3nCLJtU9Fbe_--389">
          <mxGeometry width="50" height="50" relative="1" as="geometry">
            <mxPoint x="30" y="90" as="sourcePoint" />
            <mxPoint x="30" y="110" as="targetPoint" />
          </mxGeometry>
        </mxCell>
        <mxCell id="xaQ81cR3nCLJtU9Fbe_--82" value="" style="endArrow=classic;html=1;rounded=0;" edge="1" parent="xaQ81cR3nCLJtU9Fbe_--389">
          <mxGeometry width="50" height="50" relative="1" as="geometry">
            <mxPoint x="30" y="70" as="sourcePoint" />
            <mxPoint x="30" y="50" as="targetPoint" />
          </mxGeometry>
        </mxCell>
        <mxCell id="xaQ81cR3nCLJtU9Fbe_--83" value="" style="endArrow=classic;html=1;rounded=0;" edge="1" parent="xaQ81cR3nCLJtU9Fbe_--389">
          <mxGeometry width="50" height="50" relative="1" as="geometry">
            <mxPoint x="30" y="150" as="sourcePoint" />
            <mxPoint x="30" y="130" as="targetPoint" />
          </mxGeometry>
        </mxCell>
        <mxCell id="xaQ81cR3nCLJtU9Fbe_--85" value="" style="endArrow=classic;html=1;rounded=0;" edge="1" parent="xaQ81cR3nCLJtU9Fbe_--389">
          <mxGeometry width="50" height="50" relative="1" as="geometry">
            <mxPoint x="30" y="170" as="sourcePoint" />
            <mxPoint x="30" y="190" as="targetPoint" />
          </mxGeometry>
        </mxCell>
        <mxCell id="xaQ81cR3nCLJtU9Fbe_--86" value="" style="endArrow=classic;html=1;rounded=0;" edge="1" parent="xaQ81cR3nCLJtU9Fbe_--389">
          <mxGeometry width="50" height="50" relative="1" as="geometry">
            <mxPoint x="30" y="230" as="sourcePoint" />
            <mxPoint x="30" y="210" as="targetPoint" />
          </mxGeometry>
        </mxCell>
        <mxCell id="xaQ81cR3nCLJtU9Fbe_--87" value="" style="endArrow=classic;html=1;rounded=0;" edge="1" parent="xaQ81cR3nCLJtU9Fbe_--389">
          <mxGeometry width="50" height="50" relative="1" as="geometry">
            <mxPoint x="30" y="250" as="sourcePoint" />
            <mxPoint x="30" y="270" as="targetPoint" />
          </mxGeometry>
        </mxCell>
        <mxCell id="xaQ81cR3nCLJtU9Fbe_--88" value="" style="endArrow=classic;html=1;rounded=0;" edge="1" parent="xaQ81cR3nCLJtU9Fbe_--389">
          <mxGeometry width="50" height="50" relative="1" as="geometry">
            <mxPoint x="30" y="330" as="sourcePoint" />
            <mxPoint x="30" y="350" as="targetPoint" />
          </mxGeometry>
        </mxCell>
        <mxCell id="xaQ81cR3nCLJtU9Fbe_--89" value="" style="endArrow=classic;html=1;rounded=0;" edge="1" parent="xaQ81cR3nCLJtU9Fbe_--389">
          <mxGeometry width="50" height="50" relative="1" as="geometry">
            <mxPoint x="30" y="310" as="sourcePoint" />
            <mxPoint x="30" y="290" as="targetPoint" />
          </mxGeometry>
        </mxCell>
        <mxCell id="xaQ81cR3nCLJtU9Fbe_--90" value="" style="endArrow=classic;html=1;rounded=0;" edge="1" parent="xaQ81cR3nCLJtU9Fbe_--389">
          <mxGeometry width="50" height="50" relative="1" as="geometry">
            <mxPoint x="30" y="390" as="sourcePoint" />
            <mxPoint x="30" y="370" as="targetPoint" />
          </mxGeometry>
        </mxCell>
        <mxCell id="xaQ81cR3nCLJtU9Fbe_--91" value="" style="endArrow=classic;html=1;rounded=0;" edge="1" parent="xaQ81cR3nCLJtU9Fbe_--389">
          <mxGeometry width="50" height="50" relative="1" as="geometry">
            <mxPoint x="30" y="470" as="sourcePoint" />
            <mxPoint x="30" y="450" as="targetPoint" />
          </mxGeometry>
        </mxCell>
        <mxCell id="xaQ81cR3nCLJtU9Fbe_--93" value="" style="endArrow=classic;html=1;rounded=0;" edge="1" parent="xaQ81cR3nCLJtU9Fbe_--389">
          <mxGeometry width="50" height="50" relative="1" as="geometry">
            <mxPoint x="30" y="410" as="sourcePoint" />
            <mxPoint x="30" y="430" as="targetPoint" />
          </mxGeometry>
        </mxCell>
        <mxCell id="xaQ81cR3nCLJtU9Fbe_--94" value="" style="endArrow=classic;html=1;rounded=0;" edge="1" parent="xaQ81cR3nCLJtU9Fbe_--389">
          <mxGeometry width="50" height="50" relative="1" as="geometry">
            <mxPoint x="30" y="490" as="sourcePoint" />
            <mxPoint x="30" y="510" as="targetPoint" />
          </mxGeometry>
        </mxCell>
        <mxCell id="xaQ81cR3nCLJtU9Fbe_--95" value="" style="endArrow=classic;html=1;rounded=0;" edge="1" parent="xaQ81cR3nCLJtU9Fbe_--389">
          <mxGeometry width="50" height="50" relative="1" as="geometry">
            <mxPoint x="30" y="570" as="sourcePoint" />
            <mxPoint x="30" y="590" as="targetPoint" />
          </mxGeometry>
        </mxCell>
        <mxCell id="xaQ81cR3nCLJtU9Fbe_--96" value="" style="endArrow=classic;html=1;rounded=0;" edge="1" parent="xaQ81cR3nCLJtU9Fbe_--389">
          <mxGeometry width="50" height="50" relative="1" as="geometry">
            <mxPoint x="30" y="550" as="sourcePoint" />
            <mxPoint x="30" y="530" as="targetPoint" />
          </mxGeometry>
        </mxCell>
        <mxCell id="xaQ81cR3nCLJtU9Fbe_--97" value="" style="endArrow=classic;html=1;rounded=0;" edge="1" parent="xaQ81cR3nCLJtU9Fbe_--389">
          <mxGeometry width="50" height="50" relative="1" as="geometry">
            <mxPoint x="30" y="630" as="sourcePoint" />
            <mxPoint x="30" y="610" as="targetPoint" />
          </mxGeometry>
        </mxCell>
        <mxCell id="xaQ81cR3nCLJtU9Fbe_--98" value="" style="endArrow=classic;html=1;rounded=0;" edge="1" parent="xaQ81cR3nCLJtU9Fbe_--389">
          <mxGeometry width="50" height="50" relative="1" as="geometry">
            <mxPoint x="70" y="10" as="sourcePoint" />
            <mxPoint x="70" y="50" as="targetPoint" />
          </mxGeometry>
        </mxCell>
        <mxCell id="xaQ81cR3nCLJtU9Fbe_--99" value="" style="endArrow=classic;html=1;rounded=0;" edge="1" parent="xaQ81cR3nCLJtU9Fbe_--389">
          <mxGeometry width="50" height="50" relative="1" as="geometry">
            <mxPoint x="80" y="30" as="sourcePoint" />
            <mxPoint x="80" y="70" as="targetPoint" />
          </mxGeometry>
        </mxCell>
        <mxCell id="xaQ81cR3nCLJtU9Fbe_--100" value="" style="endArrow=classic;html=1;rounded=0;" edge="1" parent="xaQ81cR3nCLJtU9Fbe_--389">
          <mxGeometry width="50" height="50" relative="1" as="geometry">
            <mxPoint x="100" y="10" as="sourcePoint" />
            <mxPoint x="100" y="30" as="targetPoint" />
          </mxGeometry>
        </mxCell>
        <mxCell id="xaQ81cR3nCLJtU9Fbe_--101" value="" style="endArrow=classic;html=1;rounded=0;" edge="1" parent="xaQ81cR3nCLJtU9Fbe_--389">
          <mxGeometry width="50" height="50" relative="1" as="geometry">
            <mxPoint x="100" y="50" as="sourcePoint" />
            <mxPoint x="100" y="70" as="targetPoint" />
          </mxGeometry>
        </mxCell>
        <mxCell id="xaQ81cR3nCLJtU9Fbe_--103" value="" style="endArrow=classic;html=1;rounded=0;" edge="1" parent="xaQ81cR3nCLJtU9Fbe_--389">
          <mxGeometry width="50" height="50" relative="1" as="geometry">
            <mxPoint x="70" y="150" as="sourcePoint" />
            <mxPoint x="70" y="110" as="targetPoint" />
          </mxGeometry>
        </mxCell>
        <mxCell id="xaQ81cR3nCLJtU9Fbe_--104" value="" style="endArrow=classic;html=1;rounded=0;" edge="1" parent="xaQ81cR3nCLJtU9Fbe_--389">
          <mxGeometry width="50" height="50" relative="1" as="geometry">
            <mxPoint x="80" y="130" as="sourcePoint" />
            <mxPoint x="80" y="90" as="targetPoint" />
          </mxGeometry>
        </mxCell>
        <mxCell id="xaQ81cR3nCLJtU9Fbe_--105" value="" style="endArrow=classic;html=1;rounded=0;" edge="1" parent="xaQ81cR3nCLJtU9Fbe_--389">
          <mxGeometry width="50" height="50" relative="1" as="geometry">
            <mxPoint x="100" y="90" as="sourcePoint" />
            <mxPoint x="100" y="90" as="targetPoint" />
            <Array as="points">
              <mxPoint x="100" y="110" />
            </Array>
          </mxGeometry>
        </mxCell>
        <mxCell id="xaQ81cR3nCLJtU9Fbe_--106" value="" style="endArrow=classic;html=1;rounded=0;" edge="1" parent="xaQ81cR3nCLJtU9Fbe_--389">
          <mxGeometry width="50" height="50" relative="1" as="geometry">
            <mxPoint x="100" y="130" as="sourcePoint" />
            <mxPoint x="100" y="130" as="targetPoint" />
            <Array as="points">
              <mxPoint x="100" y="150" />
            </Array>
          </mxGeometry>
        </mxCell>
        <mxCell id="xaQ81cR3nCLJtU9Fbe_--107" value="" style="endArrow=classic;html=1;rounded=0;" edge="1" parent="xaQ81cR3nCLJtU9Fbe_--389">
          <mxGeometry width="50" height="50" relative="1" as="geometry">
            <mxPoint x="70" y="170" as="sourcePoint" />
            <mxPoint x="70" y="210" as="targetPoint" />
          </mxGeometry>
        </mxCell>
        <mxCell id="xaQ81cR3nCLJtU9Fbe_--108" value="" style="endArrow=classic;html=1;rounded=0;" edge="1" parent="xaQ81cR3nCLJtU9Fbe_--389">
          <mxGeometry width="50" height="50" relative="1" as="geometry">
            <mxPoint x="80" y="190" as="sourcePoint" />
            <mxPoint x="80" y="230" as="targetPoint" />
          </mxGeometry>
        </mxCell>
        <mxCell id="xaQ81cR3nCLJtU9Fbe_--109" value="" style="endArrow=classic;html=1;rounded=0;" edge="1" parent="xaQ81cR3nCLJtU9Fbe_--389">
          <mxGeometry width="50" height="50" relative="1" as="geometry">
            <mxPoint x="100" y="170" as="sourcePoint" />
            <mxPoint x="100" y="190" as="targetPoint" />
          </mxGeometry>
        </mxCell>
        <mxCell id="xaQ81cR3nCLJtU9Fbe_--110" value="" style="endArrow=classic;html=1;rounded=0;" edge="1" parent="xaQ81cR3nCLJtU9Fbe_--389">
          <mxGeometry width="50" height="50" relative="1" as="geometry">
            <mxPoint x="100" y="210" as="sourcePoint" />
            <mxPoint x="100" y="230" as="targetPoint" />
          </mxGeometry>
        </mxCell>
        <mxCell id="xaQ81cR3nCLJtU9Fbe_--111" value="" style="endArrow=classic;html=1;rounded=0;" edge="1" parent="xaQ81cR3nCLJtU9Fbe_--389">
          <mxGeometry width="50" height="50" relative="1" as="geometry">
            <mxPoint x="70" y="330" as="sourcePoint" />
            <mxPoint x="70" y="370" as="targetPoint" />
          </mxGeometry>
        </mxCell>
        <mxCell id="xaQ81cR3nCLJtU9Fbe_--112" value="" style="endArrow=classic;html=1;rounded=0;" edge="1" parent="xaQ81cR3nCLJtU9Fbe_--389">
          <mxGeometry width="50" height="50" relative="1" as="geometry">
            <mxPoint x="80" y="350" as="sourcePoint" />
            <mxPoint x="80" y="390" as="targetPoint" />
          </mxGeometry>
        </mxCell>
        <mxCell id="xaQ81cR3nCLJtU9Fbe_--113" value="" style="endArrow=classic;html=1;rounded=0;" edge="1" parent="xaQ81cR3nCLJtU9Fbe_--389">
          <mxGeometry width="50" height="50" relative="1" as="geometry">
            <mxPoint x="100" y="330" as="sourcePoint" />
            <mxPoint x="100" y="350" as="targetPoint" />
          </mxGeometry>
        </mxCell>
        <mxCell id="xaQ81cR3nCLJtU9Fbe_--114" value="" style="endArrow=classic;html=1;rounded=0;" edge="1" parent="xaQ81cR3nCLJtU9Fbe_--389">
          <mxGeometry width="50" height="50" relative="1" as="geometry">
            <mxPoint x="100" y="370" as="sourcePoint" />
            <mxPoint x="100" y="390" as="targetPoint" />
          </mxGeometry>
        </mxCell>
        <mxCell id="xaQ81cR3nCLJtU9Fbe_--123" value="" style="endArrow=classic;html=1;rounded=0;" edge="1" parent="xaQ81cR3nCLJtU9Fbe_--389">
          <mxGeometry width="50" height="50" relative="1" as="geometry">
            <mxPoint x="70" y="310" as="sourcePoint" />
            <mxPoint x="70" y="270" as="targetPoint" />
          </mxGeometry>
        </mxCell>
        <mxCell id="xaQ81cR3nCLJtU9Fbe_--124" value="" style="endArrow=classic;html=1;rounded=0;" edge="1" parent="xaQ81cR3nCLJtU9Fbe_--389">
          <mxGeometry width="50" height="50" relative="1" as="geometry">
            <mxPoint x="80" y="290" as="sourcePoint" />
            <mxPoint x="80" y="250" as="targetPoint" />
          </mxGeometry>
        </mxCell>
        <mxCell id="xaQ81cR3nCLJtU9Fbe_--125" value="" style="endArrow=classic;html=1;rounded=0;" edge="1" parent="xaQ81cR3nCLJtU9Fbe_--389">
          <mxGeometry width="50" height="50" relative="1" as="geometry">
            <mxPoint x="100" y="250" as="sourcePoint" />
            <mxPoint x="100" y="250" as="targetPoint" />
            <Array as="points">
              <mxPoint x="100" y="270" />
            </Array>
          </mxGeometry>
        </mxCell>
        <mxCell id="xaQ81cR3nCLJtU9Fbe_--126" value="" style="endArrow=classic;html=1;rounded=0;" edge="1" parent="xaQ81cR3nCLJtU9Fbe_--389">
          <mxGeometry width="50" height="50" relative="1" as="geometry">
            <mxPoint x="100" y="290" as="sourcePoint" />
            <mxPoint x="100" y="290" as="targetPoint" />
            <Array as="points">
              <mxPoint x="100" y="310" />
            </Array>
          </mxGeometry>
        </mxCell>
        <mxCell id="xaQ81cR3nCLJtU9Fbe_--127" value="" style="endArrow=classic;html=1;rounded=0;" edge="1" parent="xaQ81cR3nCLJtU9Fbe_--389">
          <mxGeometry width="50" height="50" relative="1" as="geometry">
            <mxPoint x="70" y="470" as="sourcePoint" />
            <mxPoint x="70" y="430" as="targetPoint" />
          </mxGeometry>
        </mxCell>
        <mxCell id="xaQ81cR3nCLJtU9Fbe_--128" value="" style="endArrow=classic;html=1;rounded=0;" edge="1" parent="xaQ81cR3nCLJtU9Fbe_--389">
          <mxGeometry width="50" height="50" relative="1" as="geometry">
            <mxPoint x="80" y="450" as="sourcePoint" />
            <mxPoint x="80" y="410" as="targetPoint" />
          </mxGeometry>
        </mxCell>
        <mxCell id="xaQ81cR3nCLJtU9Fbe_--129" value="" style="endArrow=classic;html=1;rounded=0;" edge="1" parent="xaQ81cR3nCLJtU9Fbe_--389">
          <mxGeometry width="50" height="50" relative="1" as="geometry">
            <mxPoint x="100" y="410" as="sourcePoint" />
            <mxPoint x="100" y="410" as="targetPoint" />
            <Array as="points">
              <mxPoint x="100" y="430" />
            </Array>
          </mxGeometry>
        </mxCell>
        <mxCell id="xaQ81cR3nCLJtU9Fbe_--130" value="" style="endArrow=classic;html=1;rounded=0;" edge="1" parent="xaQ81cR3nCLJtU9Fbe_--389">
          <mxGeometry width="50" height="50" relative="1" as="geometry">
            <mxPoint x="100" y="450" as="sourcePoint" />
            <mxPoint x="100" y="450" as="targetPoint" />
            <Array as="points">
              <mxPoint x="100" y="470" />
            </Array>
          </mxGeometry>
        </mxCell>
        <mxCell id="xaQ81cR3nCLJtU9Fbe_--131" value="" style="endArrow=classic;html=1;rounded=0;" edge="1" parent="xaQ81cR3nCLJtU9Fbe_--389">
          <mxGeometry width="50" height="50" relative="1" as="geometry">
            <mxPoint x="70" y="490" as="sourcePoint" />
            <mxPoint x="70" y="530" as="targetPoint" />
          </mxGeometry>
        </mxCell>
        <mxCell id="xaQ81cR3nCLJtU9Fbe_--132" value="" style="endArrow=classic;html=1;rounded=0;" edge="1" parent="xaQ81cR3nCLJtU9Fbe_--389">
          <mxGeometry width="50" height="50" relative="1" as="geometry">
            <mxPoint x="80" y="510" as="sourcePoint" />
            <mxPoint x="80" y="550" as="targetPoint" />
          </mxGeometry>
        </mxCell>
        <mxCell id="xaQ81cR3nCLJtU9Fbe_--133" value="" style="endArrow=classic;html=1;rounded=0;" edge="1" parent="xaQ81cR3nCLJtU9Fbe_--389">
          <mxGeometry width="50" height="50" relative="1" as="geometry">
            <mxPoint x="100" y="490" as="sourcePoint" />
            <mxPoint x="100" y="510" as="targetPoint" />
          </mxGeometry>
        </mxCell>
        <mxCell id="xaQ81cR3nCLJtU9Fbe_--134" value="" style="endArrow=classic;html=1;rounded=0;" edge="1" parent="xaQ81cR3nCLJtU9Fbe_--389">
          <mxGeometry width="50" height="50" relative="1" as="geometry">
            <mxPoint x="100" y="530" as="sourcePoint" />
            <mxPoint x="100" y="550" as="targetPoint" />
          </mxGeometry>
        </mxCell>
        <mxCell id="xaQ81cR3nCLJtU9Fbe_--135" value="" style="endArrow=classic;html=1;rounded=0;" edge="1" parent="xaQ81cR3nCLJtU9Fbe_--389">
          <mxGeometry width="50" height="50" relative="1" as="geometry">
            <mxPoint x="70" y="630" as="sourcePoint" />
            <mxPoint x="70" y="590" as="targetPoint" />
          </mxGeometry>
        </mxCell>
        <mxCell id="xaQ81cR3nCLJtU9Fbe_--136" value="" style="endArrow=classic;html=1;rounded=0;" edge="1" parent="xaQ81cR3nCLJtU9Fbe_--389">
          <mxGeometry width="50" height="50" relative="1" as="geometry">
            <mxPoint x="80" y="610" as="sourcePoint" />
            <mxPoint x="80" y="570" as="targetPoint" />
          </mxGeometry>
        </mxCell>
        <mxCell id="xaQ81cR3nCLJtU9Fbe_--137" value="" style="endArrow=classic;html=1;rounded=0;" edge="1" parent="xaQ81cR3nCLJtU9Fbe_--389">
          <mxGeometry width="50" height="50" relative="1" as="geometry">
            <mxPoint x="100" y="570" as="sourcePoint" />
            <mxPoint x="100" y="570" as="targetPoint" />
            <Array as="points">
              <mxPoint x="100" y="590" />
            </Array>
          </mxGeometry>
        </mxCell>
        <mxCell id="xaQ81cR3nCLJtU9Fbe_--138" value="" style="endArrow=classic;html=1;rounded=0;" edge="1" parent="xaQ81cR3nCLJtU9Fbe_--389">
          <mxGeometry width="50" height="50" relative="1" as="geometry">
            <mxPoint x="100" y="610" as="sourcePoint" />
            <mxPoint x="100" y="610" as="targetPoint" />
            <Array as="points">
              <mxPoint x="100" y="630" />
            </Array>
          </mxGeometry>
        </mxCell>
        <mxCell id="xaQ81cR3nCLJtU9Fbe_--169" value="" style="endArrow=classic;html=1;rounded=0;" edge="1" parent="xaQ81cR3nCLJtU9Fbe_--389">
          <mxGeometry width="50" height="50" relative="1" as="geometry">
            <mxPoint x="150" y="10" as="sourcePoint" />
            <mxPoint x="150" y="90" as="targetPoint" />
          </mxGeometry>
        </mxCell>
        <mxCell id="xaQ81cR3nCLJtU9Fbe_--170" value="" style="endArrow=classic;html=1;rounded=0;" edge="1" parent="xaQ81cR3nCLJtU9Fbe_--389">
          <mxGeometry width="50" height="50" relative="1" as="geometry">
            <mxPoint x="160" y="30" as="sourcePoint" />
            <mxPoint x="160" y="110" as="targetPoint" />
          </mxGeometry>
        </mxCell>
        <mxCell id="xaQ81cR3nCLJtU9Fbe_--171" value="" style="endArrow=classic;html=1;rounded=0;" edge="1" parent="xaQ81cR3nCLJtU9Fbe_--389">
          <mxGeometry width="50" height="50" relative="1" as="geometry">
            <mxPoint x="170" y="50" as="sourcePoint" />
            <mxPoint x="170" y="130" as="targetPoint" />
          </mxGeometry>
        </mxCell>
        <mxCell id="xaQ81cR3nCLJtU9Fbe_--172" value="" style="endArrow=classic;html=1;rounded=0;" edge="1" parent="xaQ81cR3nCLJtU9Fbe_--389">
          <mxGeometry width="50" height="50" relative="1" as="geometry">
            <mxPoint x="180" y="70" as="sourcePoint" />
            <mxPoint x="180" y="150" as="targetPoint" />
          </mxGeometry>
        </mxCell>
        <mxCell id="xaQ81cR3nCLJtU9Fbe_--173" value="" style="endArrow=classic;html=1;rounded=0;" edge="1" parent="xaQ81cR3nCLJtU9Fbe_--389">
          <mxGeometry width="50" height="50" relative="1" as="geometry">
            <mxPoint x="150" y="310" as="sourcePoint" />
            <mxPoint x="150" y="230" as="targetPoint" />
          </mxGeometry>
        </mxCell>
        <mxCell id="xaQ81cR3nCLJtU9Fbe_--174" value="" style="endArrow=classic;html=1;rounded=0;" edge="1" parent="xaQ81cR3nCLJtU9Fbe_--389">
          <mxGeometry width="50" height="50" relative="1" as="geometry">
            <mxPoint x="160" y="290" as="sourcePoint" />
            <mxPoint x="160" y="210" as="targetPoint" />
          </mxGeometry>
        </mxCell>
        <mxCell id="xaQ81cR3nCLJtU9Fbe_--175" value="" style="endArrow=classic;html=1;rounded=0;" edge="1" parent="xaQ81cR3nCLJtU9Fbe_--389">
          <mxGeometry width="50" height="50" relative="1" as="geometry">
            <mxPoint x="170" y="270" as="sourcePoint" />
            <mxPoint x="170" y="190" as="targetPoint" />
          </mxGeometry>
        </mxCell>
        <mxCell id="xaQ81cR3nCLJtU9Fbe_--176" value="" style="endArrow=classic;html=1;rounded=0;" edge="1" parent="xaQ81cR3nCLJtU9Fbe_--389">
          <mxGeometry width="50" height="50" relative="1" as="geometry">
            <mxPoint x="180" y="250" as="sourcePoint" />
            <mxPoint x="180" y="170" as="targetPoint" />
          </mxGeometry>
        </mxCell>
        <mxCell id="xaQ81cR3nCLJtU9Fbe_--177" value="" style="endArrow=classic;html=1;rounded=0;" edge="1" parent="xaQ81cR3nCLJtU9Fbe_--389">
          <mxGeometry width="50" height="50" relative="1" as="geometry">
            <mxPoint x="200" y="10" as="sourcePoint" />
            <mxPoint x="200" y="50" as="targetPoint" />
          </mxGeometry>
        </mxCell>
        <mxCell id="xaQ81cR3nCLJtU9Fbe_--178" value="" style="endArrow=classic;html=1;rounded=0;" edge="1" parent="xaQ81cR3nCLJtU9Fbe_--389">
          <mxGeometry width="50" height="50" relative="1" as="geometry">
            <mxPoint x="210" y="30" as="sourcePoint" />
            <mxPoint x="210" y="70" as="targetPoint" />
          </mxGeometry>
        </mxCell>
        <mxCell id="xaQ81cR3nCLJtU9Fbe_--179" value="" style="endArrow=classic;html=1;rounded=0;" edge="1" parent="xaQ81cR3nCLJtU9Fbe_--389">
          <mxGeometry width="50" height="50" relative="1" as="geometry">
            <mxPoint x="230" y="10" as="sourcePoint" />
            <mxPoint x="230" y="30" as="targetPoint" />
          </mxGeometry>
        </mxCell>
        <mxCell id="xaQ81cR3nCLJtU9Fbe_--180" value="" style="endArrow=classic;html=1;rounded=0;" edge="1" parent="xaQ81cR3nCLJtU9Fbe_--389">
          <mxGeometry width="50" height="50" relative="1" as="geometry">
            <mxPoint x="230" y="50" as="sourcePoint" />
            <mxPoint x="230" y="70" as="targetPoint" />
          </mxGeometry>
        </mxCell>
        <mxCell id="xaQ81cR3nCLJtU9Fbe_--181" value="" style="endArrow=classic;html=1;rounded=0;" edge="1" parent="xaQ81cR3nCLJtU9Fbe_--389">
          <mxGeometry width="50" height="50" relative="1" as="geometry">
            <mxPoint x="200" y="210" as="sourcePoint" />
            <mxPoint x="200" y="170" as="targetPoint" />
          </mxGeometry>
        </mxCell>
        <mxCell id="xaQ81cR3nCLJtU9Fbe_--182" value="" style="endArrow=classic;html=1;rounded=0;" edge="1" parent="xaQ81cR3nCLJtU9Fbe_--389">
          <mxGeometry width="50" height="50" relative="1" as="geometry">
            <mxPoint x="210" y="230" as="sourcePoint" />
            <mxPoint x="210" y="190" as="targetPoint" />
          </mxGeometry>
        </mxCell>
        <mxCell id="xaQ81cR3nCLJtU9Fbe_--183" value="" style="endArrow=classic;html=1;rounded=0;" edge="1" parent="xaQ81cR3nCLJtU9Fbe_--389">
          <mxGeometry width="50" height="50" relative="1" as="geometry">
            <mxPoint x="230" y="190" as="sourcePoint" />
            <mxPoint x="230" y="170" as="targetPoint" />
          </mxGeometry>
        </mxCell>
        <mxCell id="xaQ81cR3nCLJtU9Fbe_--184" value="" style="endArrow=classic;html=1;rounded=0;" edge="1" parent="xaQ81cR3nCLJtU9Fbe_--389">
          <mxGeometry width="50" height="50" relative="1" as="geometry">
            <mxPoint x="230" y="230" as="sourcePoint" />
            <mxPoint x="230" y="210" as="targetPoint" />
          </mxGeometry>
        </mxCell>
        <mxCell id="xaQ81cR3nCLJtU9Fbe_--185" value="" style="endArrow=classic;html=1;rounded=0;" edge="1" parent="xaQ81cR3nCLJtU9Fbe_--389">
          <mxGeometry width="50" height="50" relative="1" as="geometry">
            <mxPoint x="200" y="90" as="sourcePoint" />
            <mxPoint x="200" y="130" as="targetPoint" />
          </mxGeometry>
        </mxCell>
        <mxCell id="xaQ81cR3nCLJtU9Fbe_--186" value="" style="endArrow=classic;html=1;rounded=0;" edge="1" parent="xaQ81cR3nCLJtU9Fbe_--389">
          <mxGeometry width="50" height="50" relative="1" as="geometry">
            <mxPoint x="210" y="110" as="sourcePoint" />
            <mxPoint x="210" y="150" as="targetPoint" />
          </mxGeometry>
        </mxCell>
        <mxCell id="xaQ81cR3nCLJtU9Fbe_--187" value="" style="endArrow=classic;html=1;rounded=0;" edge="1" parent="xaQ81cR3nCLJtU9Fbe_--389">
          <mxGeometry width="50" height="50" relative="1" as="geometry">
            <mxPoint x="230" y="90" as="sourcePoint" />
            <mxPoint x="230" y="110" as="targetPoint" />
          </mxGeometry>
        </mxCell>
        <mxCell id="xaQ81cR3nCLJtU9Fbe_--188" value="" style="endArrow=classic;html=1;rounded=0;" edge="1" parent="xaQ81cR3nCLJtU9Fbe_--389">
          <mxGeometry width="50" height="50" relative="1" as="geometry">
            <mxPoint x="230" y="130" as="sourcePoint" />
            <mxPoint x="230" y="150" as="targetPoint" />
          </mxGeometry>
        </mxCell>
        <mxCell id="xaQ81cR3nCLJtU9Fbe_--189" value="" style="endArrow=classic;html=1;rounded=0;" edge="1" parent="xaQ81cR3nCLJtU9Fbe_--389">
          <mxGeometry width="50" height="50" relative="1" as="geometry">
            <mxPoint x="200" y="290" as="sourcePoint" />
            <mxPoint x="200" y="250" as="targetPoint" />
          </mxGeometry>
        </mxCell>
        <mxCell id="xaQ81cR3nCLJtU9Fbe_--190" value="" style="endArrow=classic;html=1;rounded=0;" edge="1" parent="xaQ81cR3nCLJtU9Fbe_--389">
          <mxGeometry width="50" height="50" relative="1" as="geometry">
            <mxPoint x="210" y="310" as="sourcePoint" />
            <mxPoint x="210" y="270" as="targetPoint" />
          </mxGeometry>
        </mxCell>
        <mxCell id="xaQ81cR3nCLJtU9Fbe_--191" value="" style="endArrow=classic;html=1;rounded=0;" edge="1" parent="xaQ81cR3nCLJtU9Fbe_--389">
          <mxGeometry width="50" height="50" relative="1" as="geometry">
            <mxPoint x="230" y="270" as="sourcePoint" />
            <mxPoint x="230" y="250" as="targetPoint" />
          </mxGeometry>
        </mxCell>
        <mxCell id="xaQ81cR3nCLJtU9Fbe_--192" value="" style="endArrow=classic;html=1;rounded=0;" edge="1" parent="xaQ81cR3nCLJtU9Fbe_--389">
          <mxGeometry width="50" height="50" relative="1" as="geometry">
            <mxPoint x="230" y="310" as="sourcePoint" />
            <mxPoint x="230" y="290" as="targetPoint" />
          </mxGeometry>
        </mxCell>
        <mxCell id="xaQ81cR3nCLJtU9Fbe_--193" value="" style="endArrow=classic;html=1;rounded=0;" edge="1" parent="xaQ81cR3nCLJtU9Fbe_--389">
          <mxGeometry width="50" height="50" relative="1" as="geometry">
            <mxPoint x="150" y="330" as="sourcePoint" />
            <mxPoint x="150" y="410" as="targetPoint" />
          </mxGeometry>
        </mxCell>
        <mxCell id="xaQ81cR3nCLJtU9Fbe_--194" value="" style="endArrow=classic;html=1;rounded=0;" edge="1" parent="xaQ81cR3nCLJtU9Fbe_--389">
          <mxGeometry width="50" height="50" relative="1" as="geometry">
            <mxPoint x="160" y="350" as="sourcePoint" />
            <mxPoint x="160" y="430" as="targetPoint" />
          </mxGeometry>
        </mxCell>
        <mxCell id="xaQ81cR3nCLJtU9Fbe_--195" value="" style="endArrow=classic;html=1;rounded=0;" edge="1" parent="xaQ81cR3nCLJtU9Fbe_--389">
          <mxGeometry width="50" height="50" relative="1" as="geometry">
            <mxPoint x="170" y="370" as="sourcePoint" />
            <mxPoint x="170" y="450" as="targetPoint" />
          </mxGeometry>
        </mxCell>
        <mxCell id="xaQ81cR3nCLJtU9Fbe_--196" value="" style="endArrow=classic;html=1;rounded=0;" edge="1" parent="xaQ81cR3nCLJtU9Fbe_--389">
          <mxGeometry width="50" height="50" relative="1" as="geometry">
            <mxPoint x="180" y="390" as="sourcePoint" />
            <mxPoint x="180" y="470" as="targetPoint" />
          </mxGeometry>
        </mxCell>
        <mxCell id="xaQ81cR3nCLJtU9Fbe_--197" value="" style="endArrow=classic;html=1;rounded=0;" edge="1" parent="xaQ81cR3nCLJtU9Fbe_--389">
          <mxGeometry width="50" height="50" relative="1" as="geometry">
            <mxPoint x="200" y="330" as="sourcePoint" />
            <mxPoint x="200" y="370" as="targetPoint" />
          </mxGeometry>
        </mxCell>
        <mxCell id="xaQ81cR3nCLJtU9Fbe_--198" value="" style="endArrow=classic;html=1;rounded=0;" edge="1" parent="xaQ81cR3nCLJtU9Fbe_--389">
          <mxGeometry width="50" height="50" relative="1" as="geometry">
            <mxPoint x="210" y="350" as="sourcePoint" />
            <mxPoint x="210" y="390" as="targetPoint" />
          </mxGeometry>
        </mxCell>
        <mxCell id="xaQ81cR3nCLJtU9Fbe_--199" value="" style="endArrow=classic;html=1;rounded=0;" edge="1" parent="xaQ81cR3nCLJtU9Fbe_--389">
          <mxGeometry width="50" height="50" relative="1" as="geometry">
            <mxPoint x="230" y="330" as="sourcePoint" />
            <mxPoint x="230" y="350" as="targetPoint" />
          </mxGeometry>
        </mxCell>
        <mxCell id="xaQ81cR3nCLJtU9Fbe_--200" value="" style="endArrow=classic;html=1;rounded=0;" edge="1" parent="xaQ81cR3nCLJtU9Fbe_--389">
          <mxGeometry width="50" height="50" relative="1" as="geometry">
            <mxPoint x="230" y="370" as="sourcePoint" />
            <mxPoint x="230" y="390" as="targetPoint" />
          </mxGeometry>
        </mxCell>
        <mxCell id="xaQ81cR3nCLJtU9Fbe_--201" value="" style="endArrow=classic;html=1;rounded=0;" edge="1" parent="xaQ81cR3nCLJtU9Fbe_--389">
          <mxGeometry width="50" height="50" relative="1" as="geometry">
            <mxPoint x="200" y="410" as="sourcePoint" />
            <mxPoint x="200" y="450" as="targetPoint" />
          </mxGeometry>
        </mxCell>
        <mxCell id="xaQ81cR3nCLJtU9Fbe_--202" value="" style="endArrow=classic;html=1;rounded=0;" edge="1" parent="xaQ81cR3nCLJtU9Fbe_--389">
          <mxGeometry width="50" height="50" relative="1" as="geometry">
            <mxPoint x="210" y="430" as="sourcePoint" />
            <mxPoint x="210" y="470" as="targetPoint" />
          </mxGeometry>
        </mxCell>
        <mxCell id="xaQ81cR3nCLJtU9Fbe_--203" value="" style="endArrow=classic;html=1;rounded=0;" edge="1" parent="xaQ81cR3nCLJtU9Fbe_--389">
          <mxGeometry width="50" height="50" relative="1" as="geometry">
            <mxPoint x="230" y="410" as="sourcePoint" />
            <mxPoint x="230" y="430" as="targetPoint" />
          </mxGeometry>
        </mxCell>
        <mxCell id="xaQ81cR3nCLJtU9Fbe_--204" value="" style="endArrow=classic;html=1;rounded=0;" edge="1" parent="xaQ81cR3nCLJtU9Fbe_--389">
          <mxGeometry width="50" height="50" relative="1" as="geometry">
            <mxPoint x="230" y="450" as="sourcePoint" />
            <mxPoint x="230" y="470" as="targetPoint" />
          </mxGeometry>
        </mxCell>
        <mxCell id="xaQ81cR3nCLJtU9Fbe_--205" value="" style="endArrow=classic;html=1;rounded=0;" edge="1" parent="xaQ81cR3nCLJtU9Fbe_--389">
          <mxGeometry width="50" height="50" relative="1" as="geometry">
            <mxPoint x="150" y="630" as="sourcePoint" />
            <mxPoint x="150" y="550" as="targetPoint" />
          </mxGeometry>
        </mxCell>
        <mxCell id="xaQ81cR3nCLJtU9Fbe_--206" value="" style="endArrow=classic;html=1;rounded=0;" edge="1" parent="xaQ81cR3nCLJtU9Fbe_--389">
          <mxGeometry width="50" height="50" relative="1" as="geometry">
            <mxPoint x="160" y="610" as="sourcePoint" />
            <mxPoint x="160" y="530" as="targetPoint" />
          </mxGeometry>
        </mxCell>
        <mxCell id="xaQ81cR3nCLJtU9Fbe_--207" value="" style="endArrow=classic;html=1;rounded=0;" edge="1" parent="xaQ81cR3nCLJtU9Fbe_--389">
          <mxGeometry width="50" height="50" relative="1" as="geometry">
            <mxPoint x="170" y="590" as="sourcePoint" />
            <mxPoint x="170" y="510" as="targetPoint" />
          </mxGeometry>
        </mxCell>
        <mxCell id="xaQ81cR3nCLJtU9Fbe_--208" value="" style="endArrow=classic;html=1;rounded=0;" edge="1" parent="xaQ81cR3nCLJtU9Fbe_--389">
          <mxGeometry width="50" height="50" relative="1" as="geometry">
            <mxPoint x="180" y="570" as="sourcePoint" />
            <mxPoint x="180" y="490" as="targetPoint" />
          </mxGeometry>
        </mxCell>
        <mxCell id="xaQ81cR3nCLJtU9Fbe_--209" value="" style="endArrow=classic;html=1;rounded=0;" edge="1" parent="xaQ81cR3nCLJtU9Fbe_--389">
          <mxGeometry width="50" height="50" relative="1" as="geometry">
            <mxPoint x="200" y="530" as="sourcePoint" />
            <mxPoint x="200" y="490" as="targetPoint" />
          </mxGeometry>
        </mxCell>
        <mxCell id="xaQ81cR3nCLJtU9Fbe_--210" value="" style="endArrow=classic;html=1;rounded=0;" edge="1" parent="xaQ81cR3nCLJtU9Fbe_--389">
          <mxGeometry width="50" height="50" relative="1" as="geometry">
            <mxPoint x="210" y="550" as="sourcePoint" />
            <mxPoint x="210" y="510" as="targetPoint" />
          </mxGeometry>
        </mxCell>
        <mxCell id="xaQ81cR3nCLJtU9Fbe_--211" value="" style="endArrow=classic;html=1;rounded=0;" edge="1" parent="xaQ81cR3nCLJtU9Fbe_--389">
          <mxGeometry width="50" height="50" relative="1" as="geometry">
            <mxPoint x="230" y="510" as="sourcePoint" />
            <mxPoint x="230" y="490" as="targetPoint" />
          </mxGeometry>
        </mxCell>
        <mxCell id="xaQ81cR3nCLJtU9Fbe_--212" value="" style="endArrow=classic;html=1;rounded=0;" edge="1" parent="xaQ81cR3nCLJtU9Fbe_--389">
          <mxGeometry width="50" height="50" relative="1" as="geometry">
            <mxPoint x="230" y="550" as="sourcePoint" />
            <mxPoint x="230" y="530" as="targetPoint" />
          </mxGeometry>
        </mxCell>
        <mxCell id="xaQ81cR3nCLJtU9Fbe_--213" value="" style="endArrow=classic;html=1;rounded=0;" edge="1" parent="xaQ81cR3nCLJtU9Fbe_--389">
          <mxGeometry width="50" height="50" relative="1" as="geometry">
            <mxPoint x="200" y="610" as="sourcePoint" />
            <mxPoint x="200" y="570" as="targetPoint" />
          </mxGeometry>
        </mxCell>
        <mxCell id="xaQ81cR3nCLJtU9Fbe_--214" value="" style="endArrow=classic;html=1;rounded=0;" edge="1" parent="xaQ81cR3nCLJtU9Fbe_--389">
          <mxGeometry width="50" height="50" relative="1" as="geometry">
            <mxPoint x="210" y="630" as="sourcePoint" />
            <mxPoint x="210" y="590" as="targetPoint" />
          </mxGeometry>
        </mxCell>
        <mxCell id="xaQ81cR3nCLJtU9Fbe_--215" value="" style="endArrow=classic;html=1;rounded=0;" edge="1" parent="xaQ81cR3nCLJtU9Fbe_--389">
          <mxGeometry width="50" height="50" relative="1" as="geometry">
            <mxPoint x="230" y="590" as="sourcePoint" />
            <mxPoint x="230" y="570" as="targetPoint" />
          </mxGeometry>
        </mxCell>
        <mxCell id="xaQ81cR3nCLJtU9Fbe_--216" value="" style="endArrow=classic;html=1;rounded=0;" edge="1" parent="xaQ81cR3nCLJtU9Fbe_--389">
          <mxGeometry width="50" height="50" relative="1" as="geometry">
            <mxPoint x="230" y="630" as="sourcePoint" />
            <mxPoint x="230" y="610" as="targetPoint" />
          </mxGeometry>
        </mxCell>
        <mxCell id="xaQ81cR3nCLJtU9Fbe_--224" value="" style="endArrow=classic;html=1;rounded=0;" edge="1" parent="xaQ81cR3nCLJtU9Fbe_--389">
          <mxGeometry width="50" height="50" relative="1" as="geometry">
            <mxPoint x="290" y="30" as="sourcePoint" />
            <mxPoint x="290" y="190" as="targetPoint" />
          </mxGeometry>
        </mxCell>
        <mxCell id="xaQ81cR3nCLJtU9Fbe_--225" value="" style="endArrow=classic;html=1;rounded=0;" edge="1" parent="xaQ81cR3nCLJtU9Fbe_--389">
          <mxGeometry width="50" height="50" relative="1" as="geometry">
            <mxPoint x="280" y="10" as="sourcePoint" />
            <mxPoint x="280" y="170" as="targetPoint" />
          </mxGeometry>
        </mxCell>
        <mxCell id="xaQ81cR3nCLJtU9Fbe_--226" value="" style="endArrow=classic;html=1;rounded=0;" edge="1" parent="xaQ81cR3nCLJtU9Fbe_--389">
          <mxGeometry width="50" height="50" relative="1" as="geometry">
            <mxPoint x="300" y="50" as="sourcePoint" />
            <mxPoint x="300" y="210" as="targetPoint" />
          </mxGeometry>
        </mxCell>
        <mxCell id="xaQ81cR3nCLJtU9Fbe_--227" value="" style="endArrow=classic;html=1;rounded=0;" edge="1" parent="xaQ81cR3nCLJtU9Fbe_--389">
          <mxGeometry width="50" height="50" relative="1" as="geometry">
            <mxPoint x="310" y="70" as="sourcePoint" />
            <mxPoint x="310" y="230" as="targetPoint" />
          </mxGeometry>
        </mxCell>
        <mxCell id="xaQ81cR3nCLJtU9Fbe_--228" value="" style="endArrow=classic;html=1;rounded=0;" edge="1" parent="xaQ81cR3nCLJtU9Fbe_--389">
          <mxGeometry width="50" height="50" relative="1" as="geometry">
            <mxPoint x="320" y="90" as="sourcePoint" />
            <mxPoint x="320" y="250" as="targetPoint" />
          </mxGeometry>
        </mxCell>
        <mxCell id="xaQ81cR3nCLJtU9Fbe_--229" value="" style="endArrow=classic;html=1;rounded=0;" edge="1" parent="xaQ81cR3nCLJtU9Fbe_--389">
          <mxGeometry width="50" height="50" relative="1" as="geometry">
            <mxPoint x="330" y="110" as="sourcePoint" />
            <mxPoint x="330" y="270" as="targetPoint" />
          </mxGeometry>
        </mxCell>
        <mxCell id="xaQ81cR3nCLJtU9Fbe_--230" value="" style="endArrow=classic;html=1;rounded=0;" edge="1" parent="xaQ81cR3nCLJtU9Fbe_--389">
          <mxGeometry width="50" height="50" relative="1" as="geometry">
            <mxPoint x="340" y="130" as="sourcePoint" />
            <mxPoint x="340" y="290" as="targetPoint" />
          </mxGeometry>
        </mxCell>
        <mxCell id="xaQ81cR3nCLJtU9Fbe_--231" value="" style="endArrow=classic;html=1;rounded=0;" edge="1" parent="xaQ81cR3nCLJtU9Fbe_--389">
          <mxGeometry width="50" height="50" relative="1" as="geometry">
            <mxPoint x="350" y="150" as="sourcePoint" />
            <mxPoint x="350" y="310" as="targetPoint" />
          </mxGeometry>
        </mxCell>
        <mxCell id="xaQ81cR3nCLJtU9Fbe_--233" value="" style="endArrow=classic;html=1;rounded=0;" edge="1" parent="xaQ81cR3nCLJtU9Fbe_--389">
          <mxGeometry width="50" height="50" relative="1" as="geometry">
            <mxPoint x="290" y="610" as="sourcePoint" />
            <mxPoint x="290" y="450" as="targetPoint" />
          </mxGeometry>
        </mxCell>
        <mxCell id="xaQ81cR3nCLJtU9Fbe_--234" value="" style="endArrow=classic;html=1;rounded=0;" edge="1" parent="xaQ81cR3nCLJtU9Fbe_--389">
          <mxGeometry width="50" height="50" relative="1" as="geometry">
            <mxPoint x="280" y="630" as="sourcePoint" />
            <mxPoint x="280" y="470" as="targetPoint" />
          </mxGeometry>
        </mxCell>
        <mxCell id="xaQ81cR3nCLJtU9Fbe_--235" value="" style="endArrow=classic;html=1;rounded=0;" edge="1" parent="xaQ81cR3nCLJtU9Fbe_--389">
          <mxGeometry width="50" height="50" relative="1" as="geometry">
            <mxPoint x="300" y="590" as="sourcePoint" />
            <mxPoint x="300" y="430" as="targetPoint" />
          </mxGeometry>
        </mxCell>
        <mxCell id="xaQ81cR3nCLJtU9Fbe_--236" value="" style="endArrow=classic;html=1;rounded=0;" edge="1" parent="xaQ81cR3nCLJtU9Fbe_--389">
          <mxGeometry width="50" height="50" relative="1" as="geometry">
            <mxPoint x="310" y="570" as="sourcePoint" />
            <mxPoint x="310" y="410" as="targetPoint" />
          </mxGeometry>
        </mxCell>
        <mxCell id="xaQ81cR3nCLJtU9Fbe_--237" value="" style="endArrow=classic;html=1;rounded=0;" edge="1" parent="xaQ81cR3nCLJtU9Fbe_--389">
          <mxGeometry width="50" height="50" relative="1" as="geometry">
            <mxPoint x="320" y="550" as="sourcePoint" />
            <mxPoint x="320" y="390" as="targetPoint" />
          </mxGeometry>
        </mxCell>
        <mxCell id="xaQ81cR3nCLJtU9Fbe_--238" value="" style="endArrow=classic;html=1;rounded=0;" edge="1" parent="xaQ81cR3nCLJtU9Fbe_--389">
          <mxGeometry width="50" height="50" relative="1" as="geometry">
            <mxPoint x="330" y="530" as="sourcePoint" />
            <mxPoint x="330" y="370" as="targetPoint" />
          </mxGeometry>
        </mxCell>
        <mxCell id="xaQ81cR3nCLJtU9Fbe_--239" value="" style="endArrow=classic;html=1;rounded=0;" edge="1" parent="xaQ81cR3nCLJtU9Fbe_--389">
          <mxGeometry width="50" height="50" relative="1" as="geometry">
            <mxPoint x="340" y="510" as="sourcePoint" />
            <mxPoint x="340" y="350" as="targetPoint" />
          </mxGeometry>
        </mxCell>
        <mxCell id="xaQ81cR3nCLJtU9Fbe_--240" value="" style="endArrow=classic;html=1;rounded=0;" edge="1" parent="xaQ81cR3nCLJtU9Fbe_--389">
          <mxGeometry width="50" height="50" relative="1" as="geometry">
            <mxPoint x="350" y="490" as="sourcePoint" />
            <mxPoint x="350" y="330" as="targetPoint" />
          </mxGeometry>
        </mxCell>
        <mxCell id="xaQ81cR3nCLJtU9Fbe_--241" value="" style="endArrow=classic;html=1;rounded=0;" edge="1" parent="xaQ81cR3nCLJtU9Fbe_--389">
          <mxGeometry width="50" height="50" relative="1" as="geometry">
            <mxPoint x="370" y="10" as="sourcePoint" />
            <mxPoint x="370" y="90" as="targetPoint" />
          </mxGeometry>
        </mxCell>
        <mxCell id="xaQ81cR3nCLJtU9Fbe_--242" value="" style="endArrow=classic;html=1;rounded=0;" edge="1" parent="xaQ81cR3nCLJtU9Fbe_--389">
          <mxGeometry width="50" height="50" relative="1" as="geometry">
            <mxPoint x="380" y="30" as="sourcePoint" />
            <mxPoint x="380" y="110" as="targetPoint" />
          </mxGeometry>
        </mxCell>
        <mxCell id="xaQ81cR3nCLJtU9Fbe_--243" value="" style="endArrow=classic;html=1;rounded=0;" edge="1" parent="xaQ81cR3nCLJtU9Fbe_--389">
          <mxGeometry width="50" height="50" relative="1" as="geometry">
            <mxPoint x="390" y="50" as="sourcePoint" />
            <mxPoint x="390" y="130" as="targetPoint" />
          </mxGeometry>
        </mxCell>
        <mxCell id="xaQ81cR3nCLJtU9Fbe_--244" value="" style="endArrow=classic;html=1;rounded=0;" edge="1" parent="xaQ81cR3nCLJtU9Fbe_--389">
          <mxGeometry width="50" height="50" relative="1" as="geometry">
            <mxPoint x="400" y="70" as="sourcePoint" />
            <mxPoint x="400" y="150" as="targetPoint" />
          </mxGeometry>
        </mxCell>
        <mxCell id="xaQ81cR3nCLJtU9Fbe_--245" value="" style="endArrow=classic;html=1;rounded=0;" edge="1" parent="xaQ81cR3nCLJtU9Fbe_--389">
          <mxGeometry width="50" height="50" relative="1" as="geometry">
            <mxPoint x="420" y="10" as="sourcePoint" />
            <mxPoint x="420" y="50" as="targetPoint" />
          </mxGeometry>
        </mxCell>
        <mxCell id="xaQ81cR3nCLJtU9Fbe_--246" value="" style="endArrow=classic;html=1;rounded=0;" edge="1" parent="xaQ81cR3nCLJtU9Fbe_--389">
          <mxGeometry width="50" height="50" relative="1" as="geometry">
            <mxPoint x="430" y="30" as="sourcePoint" />
            <mxPoint x="430" y="70" as="targetPoint" />
          </mxGeometry>
        </mxCell>
        <mxCell id="xaQ81cR3nCLJtU9Fbe_--247" value="" style="endArrow=classic;html=1;rounded=0;" edge="1" parent="xaQ81cR3nCLJtU9Fbe_--389">
          <mxGeometry width="50" height="50" relative="1" as="geometry">
            <mxPoint x="450" y="10" as="sourcePoint" />
            <mxPoint x="450" y="30" as="targetPoint" />
          </mxGeometry>
        </mxCell>
        <mxCell id="xaQ81cR3nCLJtU9Fbe_--248" value="" style="endArrow=classic;html=1;rounded=0;" edge="1" parent="xaQ81cR3nCLJtU9Fbe_--389">
          <mxGeometry width="50" height="50" relative="1" as="geometry">
            <mxPoint x="450" y="50" as="sourcePoint" />
            <mxPoint x="450" y="70" as="targetPoint" />
          </mxGeometry>
        </mxCell>
        <mxCell id="xaQ81cR3nCLJtU9Fbe_--249" value="" style="endArrow=classic;html=1;rounded=0;" edge="1" parent="xaQ81cR3nCLJtU9Fbe_--389">
          <mxGeometry width="50" height="50" relative="1" as="geometry">
            <mxPoint x="420" y="90" as="sourcePoint" />
            <mxPoint x="420" y="130" as="targetPoint" />
          </mxGeometry>
        </mxCell>
        <mxCell id="xaQ81cR3nCLJtU9Fbe_--250" value="" style="endArrow=classic;html=1;rounded=0;" edge="1" parent="xaQ81cR3nCLJtU9Fbe_--389">
          <mxGeometry width="50" height="50" relative="1" as="geometry">
            <mxPoint x="430" y="110" as="sourcePoint" />
            <mxPoint x="430" y="150" as="targetPoint" />
          </mxGeometry>
        </mxCell>
        <mxCell id="xaQ81cR3nCLJtU9Fbe_--251" value="" style="endArrow=classic;html=1;rounded=0;" edge="1" parent="xaQ81cR3nCLJtU9Fbe_--389">
          <mxGeometry width="50" height="50" relative="1" as="geometry">
            <mxPoint x="450" y="90" as="sourcePoint" />
            <mxPoint x="450" y="110" as="targetPoint" />
          </mxGeometry>
        </mxCell>
        <mxCell id="xaQ81cR3nCLJtU9Fbe_--252" value="" style="endArrow=classic;html=1;rounded=0;" edge="1" parent="xaQ81cR3nCLJtU9Fbe_--389">
          <mxGeometry width="50" height="50" relative="1" as="geometry">
            <mxPoint x="450" y="130" as="sourcePoint" />
            <mxPoint x="450" y="150" as="targetPoint" />
          </mxGeometry>
        </mxCell>
        <mxCell id="xaQ81cR3nCLJtU9Fbe_--265" value="" style="endArrow=classic;html=1;rounded=0;" edge="1" parent="xaQ81cR3nCLJtU9Fbe_--389">
          <mxGeometry width="50" height="50" relative="1" as="geometry">
            <mxPoint x="370" y="470" as="sourcePoint" />
            <mxPoint x="370" y="390" as="targetPoint" />
          </mxGeometry>
        </mxCell>
        <mxCell id="xaQ81cR3nCLJtU9Fbe_--266" value="" style="endArrow=classic;html=1;rounded=0;" edge="1" parent="xaQ81cR3nCLJtU9Fbe_--389">
          <mxGeometry width="50" height="50" relative="1" as="geometry">
            <mxPoint x="380" y="450" as="sourcePoint" />
            <mxPoint x="380" y="370" as="targetPoint" />
          </mxGeometry>
        </mxCell>
        <mxCell id="xaQ81cR3nCLJtU9Fbe_--267" value="" style="endArrow=classic;html=1;rounded=0;" edge="1" parent="xaQ81cR3nCLJtU9Fbe_--389">
          <mxGeometry width="50" height="50" relative="1" as="geometry">
            <mxPoint x="390" y="430" as="sourcePoint" />
            <mxPoint x="390" y="350" as="targetPoint" />
          </mxGeometry>
        </mxCell>
        <mxCell id="xaQ81cR3nCLJtU9Fbe_--268" value="" style="endArrow=classic;html=1;rounded=0;" edge="1" parent="xaQ81cR3nCLJtU9Fbe_--389">
          <mxGeometry width="50" height="50" relative="1" as="geometry">
            <mxPoint x="400" y="410" as="sourcePoint" />
            <mxPoint x="400" y="330" as="targetPoint" />
          </mxGeometry>
        </mxCell>
        <mxCell id="xaQ81cR3nCLJtU9Fbe_--269" value="" style="endArrow=classic;html=1;rounded=0;" edge="1" parent="xaQ81cR3nCLJtU9Fbe_--389">
          <mxGeometry width="50" height="50" relative="1" as="geometry">
            <mxPoint x="420" y="370" as="sourcePoint" />
            <mxPoint x="420" y="330" as="targetPoint" />
          </mxGeometry>
        </mxCell>
        <mxCell id="xaQ81cR3nCLJtU9Fbe_--270" value="" style="endArrow=classic;html=1;rounded=0;" edge="1" parent="xaQ81cR3nCLJtU9Fbe_--389">
          <mxGeometry width="50" height="50" relative="1" as="geometry">
            <mxPoint x="430" y="390" as="sourcePoint" />
            <mxPoint x="430" y="350" as="targetPoint" />
          </mxGeometry>
        </mxCell>
        <mxCell id="xaQ81cR3nCLJtU9Fbe_--271" value="" style="endArrow=classic;html=1;rounded=0;" edge="1" parent="xaQ81cR3nCLJtU9Fbe_--389">
          <mxGeometry width="50" height="50" relative="1" as="geometry">
            <mxPoint x="450" y="350" as="sourcePoint" />
            <mxPoint x="450" y="330" as="targetPoint" />
          </mxGeometry>
        </mxCell>
        <mxCell id="xaQ81cR3nCLJtU9Fbe_--272" value="" style="endArrow=classic;html=1;rounded=0;" edge="1" parent="xaQ81cR3nCLJtU9Fbe_--389">
          <mxGeometry width="50" height="50" relative="1" as="geometry">
            <mxPoint x="450" y="390" as="sourcePoint" />
            <mxPoint x="450" y="370" as="targetPoint" />
          </mxGeometry>
        </mxCell>
        <mxCell id="xaQ81cR3nCLJtU9Fbe_--273" value="" style="endArrow=classic;html=1;rounded=0;" edge="1" parent="xaQ81cR3nCLJtU9Fbe_--389">
          <mxGeometry width="50" height="50" relative="1" as="geometry">
            <mxPoint x="420" y="450" as="sourcePoint" />
            <mxPoint x="420" y="410" as="targetPoint" />
          </mxGeometry>
        </mxCell>
        <mxCell id="xaQ81cR3nCLJtU9Fbe_--274" value="" style="endArrow=classic;html=1;rounded=0;" edge="1" parent="xaQ81cR3nCLJtU9Fbe_--389">
          <mxGeometry width="50" height="50" relative="1" as="geometry">
            <mxPoint x="430" y="470" as="sourcePoint" />
            <mxPoint x="430" y="430" as="targetPoint" />
          </mxGeometry>
        </mxCell>
        <mxCell id="xaQ81cR3nCLJtU9Fbe_--275" value="" style="endArrow=classic;html=1;rounded=0;" edge="1" parent="xaQ81cR3nCLJtU9Fbe_--389">
          <mxGeometry width="50" height="50" relative="1" as="geometry">
            <mxPoint x="450" y="430" as="sourcePoint" />
            <mxPoint x="450" y="410" as="targetPoint" />
          </mxGeometry>
        </mxCell>
        <mxCell id="xaQ81cR3nCLJtU9Fbe_--276" value="" style="endArrow=classic;html=1;rounded=0;" edge="1" parent="xaQ81cR3nCLJtU9Fbe_--389">
          <mxGeometry width="50" height="50" relative="1" as="geometry">
            <mxPoint x="450" y="470" as="sourcePoint" />
            <mxPoint x="450" y="450" as="targetPoint" />
          </mxGeometry>
        </mxCell>
        <mxCell id="xaQ81cR3nCLJtU9Fbe_--277" value="" style="endArrow=classic;html=1;rounded=0;" edge="1" parent="xaQ81cR3nCLJtU9Fbe_--389">
          <mxGeometry width="50" height="50" relative="1" as="geometry">
            <mxPoint x="370" y="170" as="sourcePoint" />
            <mxPoint x="370" y="250" as="targetPoint" />
          </mxGeometry>
        </mxCell>
        <mxCell id="xaQ81cR3nCLJtU9Fbe_--278" value="" style="endArrow=classic;html=1;rounded=0;" edge="1" parent="xaQ81cR3nCLJtU9Fbe_--389">
          <mxGeometry width="50" height="50" relative="1" as="geometry">
            <mxPoint x="380" y="190" as="sourcePoint" />
            <mxPoint x="380" y="270" as="targetPoint" />
          </mxGeometry>
        </mxCell>
        <mxCell id="xaQ81cR3nCLJtU9Fbe_--279" value="" style="endArrow=classic;html=1;rounded=0;" edge="1" parent="xaQ81cR3nCLJtU9Fbe_--389">
          <mxGeometry width="50" height="50" relative="1" as="geometry">
            <mxPoint x="390" y="210" as="sourcePoint" />
            <mxPoint x="390" y="290" as="targetPoint" />
          </mxGeometry>
        </mxCell>
        <mxCell id="xaQ81cR3nCLJtU9Fbe_--280" value="" style="endArrow=classic;html=1;rounded=0;" edge="1" parent="xaQ81cR3nCLJtU9Fbe_--389">
          <mxGeometry width="50" height="50" relative="1" as="geometry">
            <mxPoint x="400" y="230" as="sourcePoint" />
            <mxPoint x="400" y="310" as="targetPoint" />
          </mxGeometry>
        </mxCell>
        <mxCell id="xaQ81cR3nCLJtU9Fbe_--281" value="" style="endArrow=classic;html=1;rounded=0;" edge="1" parent="xaQ81cR3nCLJtU9Fbe_--389">
          <mxGeometry width="50" height="50" relative="1" as="geometry">
            <mxPoint x="420" y="170" as="sourcePoint" />
            <mxPoint x="420" y="210" as="targetPoint" />
          </mxGeometry>
        </mxCell>
        <mxCell id="xaQ81cR3nCLJtU9Fbe_--282" value="" style="endArrow=classic;html=1;rounded=0;" edge="1" parent="xaQ81cR3nCLJtU9Fbe_--389">
          <mxGeometry width="50" height="50" relative="1" as="geometry">
            <mxPoint x="430" y="190" as="sourcePoint" />
            <mxPoint x="430" y="230" as="targetPoint" />
          </mxGeometry>
        </mxCell>
        <mxCell id="xaQ81cR3nCLJtU9Fbe_--283" value="" style="endArrow=classic;html=1;rounded=0;" edge="1" parent="xaQ81cR3nCLJtU9Fbe_--389">
          <mxGeometry width="50" height="50" relative="1" as="geometry">
            <mxPoint x="450" y="170" as="sourcePoint" />
            <mxPoint x="450" y="190" as="targetPoint" />
          </mxGeometry>
        </mxCell>
        <mxCell id="xaQ81cR3nCLJtU9Fbe_--284" value="" style="endArrow=classic;html=1;rounded=0;" edge="1" parent="xaQ81cR3nCLJtU9Fbe_--389">
          <mxGeometry width="50" height="50" relative="1" as="geometry">
            <mxPoint x="450" y="210" as="sourcePoint" />
            <mxPoint x="450" y="230" as="targetPoint" />
          </mxGeometry>
        </mxCell>
        <mxCell id="xaQ81cR3nCLJtU9Fbe_--285" value="" style="endArrow=classic;html=1;rounded=0;" edge="1" parent="xaQ81cR3nCLJtU9Fbe_--389">
          <mxGeometry width="50" height="50" relative="1" as="geometry">
            <mxPoint x="420" y="250" as="sourcePoint" />
            <mxPoint x="420" y="290" as="targetPoint" />
          </mxGeometry>
        </mxCell>
        <mxCell id="xaQ81cR3nCLJtU9Fbe_--286" value="" style="endArrow=classic;html=1;rounded=0;" edge="1" parent="xaQ81cR3nCLJtU9Fbe_--389">
          <mxGeometry width="50" height="50" relative="1" as="geometry">
            <mxPoint x="430" y="270" as="sourcePoint" />
            <mxPoint x="430" y="310" as="targetPoint" />
          </mxGeometry>
        </mxCell>
        <mxCell id="xaQ81cR3nCLJtU9Fbe_--287" value="" style="endArrow=classic;html=1;rounded=0;" edge="1" parent="xaQ81cR3nCLJtU9Fbe_--389">
          <mxGeometry width="50" height="50" relative="1" as="geometry">
            <mxPoint x="450" y="250" as="sourcePoint" />
            <mxPoint x="450" y="270" as="targetPoint" />
          </mxGeometry>
        </mxCell>
        <mxCell id="xaQ81cR3nCLJtU9Fbe_--288" value="" style="endArrow=classic;html=1;rounded=0;" edge="1" parent="xaQ81cR3nCLJtU9Fbe_--389">
          <mxGeometry width="50" height="50" relative="1" as="geometry">
            <mxPoint x="450" y="290" as="sourcePoint" />
            <mxPoint x="450" y="310" as="targetPoint" />
          </mxGeometry>
        </mxCell>
        <mxCell id="xaQ81cR3nCLJtU9Fbe_--289" value="" style="endArrow=classic;html=1;rounded=0;" edge="1" parent="xaQ81cR3nCLJtU9Fbe_--389">
          <mxGeometry width="50" height="50" relative="1" as="geometry">
            <mxPoint x="370" y="630" as="sourcePoint" />
            <mxPoint x="370" y="550" as="targetPoint" />
          </mxGeometry>
        </mxCell>
        <mxCell id="xaQ81cR3nCLJtU9Fbe_--290" value="" style="endArrow=classic;html=1;rounded=0;" edge="1" parent="xaQ81cR3nCLJtU9Fbe_--389">
          <mxGeometry width="50" height="50" relative="1" as="geometry">
            <mxPoint x="380" y="610" as="sourcePoint" />
            <mxPoint x="380" y="530" as="targetPoint" />
          </mxGeometry>
        </mxCell>
        <mxCell id="xaQ81cR3nCLJtU9Fbe_--291" value="" style="endArrow=classic;html=1;rounded=0;" edge="1" parent="xaQ81cR3nCLJtU9Fbe_--389">
          <mxGeometry width="50" height="50" relative="1" as="geometry">
            <mxPoint x="390" y="590" as="sourcePoint" />
            <mxPoint x="390" y="510" as="targetPoint" />
          </mxGeometry>
        </mxCell>
        <mxCell id="xaQ81cR3nCLJtU9Fbe_--292" value="" style="endArrow=classic;html=1;rounded=0;" edge="1" parent="xaQ81cR3nCLJtU9Fbe_--389">
          <mxGeometry width="50" height="50" relative="1" as="geometry">
            <mxPoint x="400" y="570" as="sourcePoint" />
            <mxPoint x="400" y="490" as="targetPoint" />
          </mxGeometry>
        </mxCell>
        <mxCell id="xaQ81cR3nCLJtU9Fbe_--293" value="" style="endArrow=classic;html=1;rounded=0;" edge="1" parent="xaQ81cR3nCLJtU9Fbe_--389">
          <mxGeometry width="50" height="50" relative="1" as="geometry">
            <mxPoint x="420" y="530" as="sourcePoint" />
            <mxPoint x="420" y="490" as="targetPoint" />
          </mxGeometry>
        </mxCell>
        <mxCell id="xaQ81cR3nCLJtU9Fbe_--294" value="" style="endArrow=classic;html=1;rounded=0;" edge="1" parent="xaQ81cR3nCLJtU9Fbe_--389">
          <mxGeometry width="50" height="50" relative="1" as="geometry">
            <mxPoint x="430" y="550" as="sourcePoint" />
            <mxPoint x="430" y="510" as="targetPoint" />
          </mxGeometry>
        </mxCell>
        <mxCell id="xaQ81cR3nCLJtU9Fbe_--295" value="" style="endArrow=classic;html=1;rounded=0;" edge="1" parent="xaQ81cR3nCLJtU9Fbe_--389">
          <mxGeometry width="50" height="50" relative="1" as="geometry">
            <mxPoint x="450" y="510" as="sourcePoint" />
            <mxPoint x="450" y="490" as="targetPoint" />
          </mxGeometry>
        </mxCell>
        <mxCell id="xaQ81cR3nCLJtU9Fbe_--296" value="" style="endArrow=classic;html=1;rounded=0;" edge="1" parent="xaQ81cR3nCLJtU9Fbe_--389">
          <mxGeometry width="50" height="50" relative="1" as="geometry">
            <mxPoint x="450" y="550" as="sourcePoint" />
            <mxPoint x="450" y="530" as="targetPoint" />
          </mxGeometry>
        </mxCell>
        <mxCell id="xaQ81cR3nCLJtU9Fbe_--297" value="" style="endArrow=classic;html=1;rounded=0;" edge="1" parent="xaQ81cR3nCLJtU9Fbe_--389">
          <mxGeometry width="50" height="50" relative="1" as="geometry">
            <mxPoint x="420" y="610" as="sourcePoint" />
            <mxPoint x="420" y="570" as="targetPoint" />
          </mxGeometry>
        </mxCell>
        <mxCell id="xaQ81cR3nCLJtU9Fbe_--298" value="" style="endArrow=classic;html=1;rounded=0;" edge="1" parent="xaQ81cR3nCLJtU9Fbe_--389">
          <mxGeometry width="50" height="50" relative="1" as="geometry">
            <mxPoint x="430" y="630" as="sourcePoint" />
            <mxPoint x="430" y="590" as="targetPoint" />
          </mxGeometry>
        </mxCell>
        <mxCell id="xaQ81cR3nCLJtU9Fbe_--299" value="" style="endArrow=classic;html=1;rounded=0;" edge="1" parent="xaQ81cR3nCLJtU9Fbe_--389">
          <mxGeometry width="50" height="50" relative="1" as="geometry">
            <mxPoint x="450" y="590" as="sourcePoint" />
            <mxPoint x="450" y="570" as="targetPoint" />
          </mxGeometry>
        </mxCell>
        <mxCell id="xaQ81cR3nCLJtU9Fbe_--300" value="" style="endArrow=classic;html=1;rounded=0;" edge="1" parent="xaQ81cR3nCLJtU9Fbe_--389">
          <mxGeometry width="50" height="50" relative="1" as="geometry">
            <mxPoint x="450" y="630" as="sourcePoint" />
            <mxPoint x="450" y="610" as="targetPoint" />
          </mxGeometry>
        </mxCell>
        <mxCell id="xaQ81cR3nCLJtU9Fbe_--304" value="" style="endArrow=classic;html=1;rounded=0;" edge="1" parent="xaQ81cR3nCLJtU9Fbe_--389">
          <mxGeometry width="50" height="50" relative="1" as="geometry">
            <mxPoint x="500" y="10" as="sourcePoint" />
            <mxPoint x="500" y="330" as="targetPoint" />
          </mxGeometry>
        </mxCell>
        <mxCell id="xaQ81cR3nCLJtU9Fbe_--305" value="" style="endArrow=classic;html=1;rounded=0;" edge="1" parent="xaQ81cR3nCLJtU9Fbe_--389">
          <mxGeometry width="50" height="50" relative="1" as="geometry">
            <mxPoint x="510" y="30" as="sourcePoint" />
            <mxPoint x="510" y="350" as="targetPoint" />
          </mxGeometry>
        </mxCell>
        <mxCell id="xaQ81cR3nCLJtU9Fbe_--306" value="" style="endArrow=classic;html=1;rounded=0;" edge="1" parent="xaQ81cR3nCLJtU9Fbe_--389">
          <mxGeometry width="50" height="50" relative="1" as="geometry">
            <mxPoint x="520" y="50" as="sourcePoint" />
            <mxPoint x="520" y="370" as="targetPoint" />
          </mxGeometry>
        </mxCell>
        <mxCell id="xaQ81cR3nCLJtU9Fbe_--307" value="" style="endArrow=classic;html=1;rounded=0;" edge="1" parent="xaQ81cR3nCLJtU9Fbe_--389">
          <mxGeometry width="50" height="50" relative="1" as="geometry">
            <mxPoint x="530" y="70" as="sourcePoint" />
            <mxPoint x="530" y="390" as="targetPoint" />
          </mxGeometry>
        </mxCell>
        <mxCell id="xaQ81cR3nCLJtU9Fbe_--308" value="" style="endArrow=classic;html=1;rounded=0;" edge="1" parent="xaQ81cR3nCLJtU9Fbe_--389">
          <mxGeometry width="50" height="50" relative="1" as="geometry">
            <mxPoint x="540" y="90" as="sourcePoint" />
            <mxPoint x="540" y="410" as="targetPoint" />
          </mxGeometry>
        </mxCell>
        <mxCell id="xaQ81cR3nCLJtU9Fbe_--311" value="" style="endArrow=classic;html=1;rounded=0;" edge="1" parent="xaQ81cR3nCLJtU9Fbe_--389">
          <mxGeometry width="50" height="50" relative="1" as="geometry">
            <mxPoint x="550" y="110" as="sourcePoint" />
            <mxPoint x="550" y="430" as="targetPoint" />
          </mxGeometry>
        </mxCell>
        <mxCell id="xaQ81cR3nCLJtU9Fbe_--312" value="" style="endArrow=classic;html=1;rounded=0;" edge="1" parent="xaQ81cR3nCLJtU9Fbe_--389">
          <mxGeometry width="50" height="50" relative="1" as="geometry">
            <mxPoint x="560" y="130" as="sourcePoint" />
            <mxPoint x="560" y="450" as="targetPoint" />
          </mxGeometry>
        </mxCell>
        <mxCell id="xaQ81cR3nCLJtU9Fbe_--313" value="" style="endArrow=classic;html=1;rounded=0;" edge="1" parent="xaQ81cR3nCLJtU9Fbe_--389">
          <mxGeometry width="50" height="50" relative="1" as="geometry">
            <mxPoint x="570" y="150" as="sourcePoint" />
            <mxPoint x="570" y="470" as="targetPoint" />
          </mxGeometry>
        </mxCell>
        <mxCell id="xaQ81cR3nCLJtU9Fbe_--314" value="" style="endArrow=classic;html=1;rounded=0;" edge="1" parent="xaQ81cR3nCLJtU9Fbe_--389">
          <mxGeometry width="50" height="50" relative="1" as="geometry">
            <mxPoint x="580" y="170" as="sourcePoint" />
            <mxPoint x="580" y="490" as="targetPoint" />
          </mxGeometry>
        </mxCell>
        <mxCell id="xaQ81cR3nCLJtU9Fbe_--315" value="" style="endArrow=classic;html=1;rounded=0;" edge="1" parent="xaQ81cR3nCLJtU9Fbe_--389">
          <mxGeometry width="50" height="50" relative="1" as="geometry">
            <mxPoint x="590" y="190" as="sourcePoint" />
            <mxPoint x="590" y="510" as="targetPoint" />
          </mxGeometry>
        </mxCell>
        <mxCell id="xaQ81cR3nCLJtU9Fbe_--316" value="" style="endArrow=classic;html=1;rounded=0;" edge="1" parent="xaQ81cR3nCLJtU9Fbe_--389">
          <mxGeometry width="50" height="50" relative="1" as="geometry">
            <mxPoint x="610" y="230" as="sourcePoint" />
            <mxPoint x="610" y="550" as="targetPoint" />
          </mxGeometry>
        </mxCell>
        <mxCell id="xaQ81cR3nCLJtU9Fbe_--317" value="" style="endArrow=classic;html=1;rounded=0;" edge="1" parent="xaQ81cR3nCLJtU9Fbe_--389">
          <mxGeometry width="50" height="50" relative="1" as="geometry">
            <mxPoint x="600" y="210" as="sourcePoint" />
            <mxPoint x="600" y="530" as="targetPoint" />
          </mxGeometry>
        </mxCell>
        <mxCell id="xaQ81cR3nCLJtU9Fbe_--318" value="" style="endArrow=classic;html=1;rounded=0;" edge="1" parent="xaQ81cR3nCLJtU9Fbe_--389">
          <mxGeometry width="50" height="50" relative="1" as="geometry">
            <mxPoint x="620" y="250" as="sourcePoint" />
            <mxPoint x="620" y="570" as="targetPoint" />
          </mxGeometry>
        </mxCell>
        <mxCell id="xaQ81cR3nCLJtU9Fbe_--319" value="" style="endArrow=classic;html=1;rounded=0;" edge="1" parent="xaQ81cR3nCLJtU9Fbe_--389">
          <mxGeometry width="50" height="50" relative="1" as="geometry">
            <mxPoint x="640" y="290" as="sourcePoint" />
            <mxPoint x="640" y="610" as="targetPoint" />
          </mxGeometry>
        </mxCell>
        <mxCell id="xaQ81cR3nCLJtU9Fbe_--320" value="" style="endArrow=classic;html=1;rounded=0;" edge="1" parent="xaQ81cR3nCLJtU9Fbe_--389">
          <mxGeometry width="50" height="50" relative="1" as="geometry">
            <mxPoint x="630" y="270" as="sourcePoint" />
            <mxPoint x="630" y="590" as="targetPoint" />
          </mxGeometry>
        </mxCell>
        <mxCell id="xaQ81cR3nCLJtU9Fbe_--321" value="" style="endArrow=classic;html=1;rounded=0;" edge="1" parent="xaQ81cR3nCLJtU9Fbe_--389">
          <mxGeometry width="50" height="50" relative="1" as="geometry">
            <mxPoint x="650" y="310" as="sourcePoint" />
            <mxPoint x="650" y="630" as="targetPoint" />
          </mxGeometry>
        </mxCell>
        <mxCell id="xaQ81cR3nCLJtU9Fbe_--323" value="" style="endArrow=classic;html=1;rounded=0;" edge="1" parent="xaQ81cR3nCLJtU9Fbe_--389">
          <mxGeometry width="50" height="50" relative="1" as="geometry">
            <mxPoint x="680" y="30" as="sourcePoint" />
            <mxPoint x="680" y="190" as="targetPoint" />
          </mxGeometry>
        </mxCell>
        <mxCell id="xaQ81cR3nCLJtU9Fbe_--324" value="" style="endArrow=classic;html=1;rounded=0;" edge="1" parent="xaQ81cR3nCLJtU9Fbe_--389">
          <mxGeometry width="50" height="50" relative="1" as="geometry">
            <mxPoint x="670" y="10" as="sourcePoint" />
            <mxPoint x="670" y="170" as="targetPoint" />
          </mxGeometry>
        </mxCell>
        <mxCell id="xaQ81cR3nCLJtU9Fbe_--325" value="" style="endArrow=classic;html=1;rounded=0;" edge="1" parent="xaQ81cR3nCLJtU9Fbe_--389">
          <mxGeometry width="50" height="50" relative="1" as="geometry">
            <mxPoint x="690" y="50" as="sourcePoint" />
            <mxPoint x="690" y="210" as="targetPoint" />
          </mxGeometry>
        </mxCell>
        <mxCell id="xaQ81cR3nCLJtU9Fbe_--326" value="" style="endArrow=classic;html=1;rounded=0;" edge="1" parent="xaQ81cR3nCLJtU9Fbe_--389">
          <mxGeometry width="50" height="50" relative="1" as="geometry">
            <mxPoint x="700" y="70" as="sourcePoint" />
            <mxPoint x="700" y="230" as="targetPoint" />
          </mxGeometry>
        </mxCell>
        <mxCell id="xaQ81cR3nCLJtU9Fbe_--327" value="" style="endArrow=classic;html=1;rounded=0;" edge="1" parent="xaQ81cR3nCLJtU9Fbe_--389">
          <mxGeometry width="50" height="50" relative="1" as="geometry">
            <mxPoint x="710" y="90" as="sourcePoint" />
            <mxPoint x="710" y="250" as="targetPoint" />
          </mxGeometry>
        </mxCell>
        <mxCell id="xaQ81cR3nCLJtU9Fbe_--328" value="" style="endArrow=classic;html=1;rounded=0;" edge="1" parent="xaQ81cR3nCLJtU9Fbe_--389">
          <mxGeometry width="50" height="50" relative="1" as="geometry">
            <mxPoint x="720" y="110" as="sourcePoint" />
            <mxPoint x="720" y="270" as="targetPoint" />
          </mxGeometry>
        </mxCell>
        <mxCell id="xaQ81cR3nCLJtU9Fbe_--329" value="" style="endArrow=classic;html=1;rounded=0;" edge="1" parent="xaQ81cR3nCLJtU9Fbe_--389">
          <mxGeometry width="50" height="50" relative="1" as="geometry">
            <mxPoint x="730" y="130" as="sourcePoint" />
            <mxPoint x="730" y="290" as="targetPoint" />
          </mxGeometry>
        </mxCell>
        <mxCell id="xaQ81cR3nCLJtU9Fbe_--330" value="" style="endArrow=classic;html=1;rounded=0;" edge="1" parent="xaQ81cR3nCLJtU9Fbe_--389">
          <mxGeometry width="50" height="50" relative="1" as="geometry">
            <mxPoint x="740" y="150" as="sourcePoint" />
            <mxPoint x="740" y="310" as="targetPoint" />
          </mxGeometry>
        </mxCell>
        <mxCell id="xaQ81cR3nCLJtU9Fbe_--331" value="" style="endArrow=classic;html=1;rounded=0;" edge="1" parent="xaQ81cR3nCLJtU9Fbe_--389">
          <mxGeometry width="50" height="50" relative="1" as="geometry">
            <mxPoint x="760" y="10" as="sourcePoint" />
            <mxPoint x="760" y="90" as="targetPoint" />
          </mxGeometry>
        </mxCell>
        <mxCell id="xaQ81cR3nCLJtU9Fbe_--332" value="" style="endArrow=classic;html=1;rounded=0;" edge="1" parent="xaQ81cR3nCLJtU9Fbe_--389">
          <mxGeometry width="50" height="50" relative="1" as="geometry">
            <mxPoint x="770" y="30" as="sourcePoint" />
            <mxPoint x="770" y="110" as="targetPoint" />
          </mxGeometry>
        </mxCell>
        <mxCell id="xaQ81cR3nCLJtU9Fbe_--333" value="" style="endArrow=classic;html=1;rounded=0;" edge="1" parent="xaQ81cR3nCLJtU9Fbe_--389">
          <mxGeometry width="50" height="50" relative="1" as="geometry">
            <mxPoint x="780" y="50" as="sourcePoint" />
            <mxPoint x="780" y="130" as="targetPoint" />
          </mxGeometry>
        </mxCell>
        <mxCell id="xaQ81cR3nCLJtU9Fbe_--334" value="" style="endArrow=classic;html=1;rounded=0;" edge="1" parent="xaQ81cR3nCLJtU9Fbe_--389">
          <mxGeometry width="50" height="50" relative="1" as="geometry">
            <mxPoint x="790" y="70" as="sourcePoint" />
            <mxPoint x="790" y="150" as="targetPoint" />
          </mxGeometry>
        </mxCell>
        <mxCell id="xaQ81cR3nCLJtU9Fbe_--335" value="" style="endArrow=classic;html=1;rounded=0;" edge="1" parent="xaQ81cR3nCLJtU9Fbe_--389">
          <mxGeometry width="50" height="50" relative="1" as="geometry">
            <mxPoint x="810" y="10" as="sourcePoint" />
            <mxPoint x="810" y="50" as="targetPoint" />
          </mxGeometry>
        </mxCell>
        <mxCell id="xaQ81cR3nCLJtU9Fbe_--336" value="" style="endArrow=classic;html=1;rounded=0;" edge="1" parent="xaQ81cR3nCLJtU9Fbe_--389">
          <mxGeometry width="50" height="50" relative="1" as="geometry">
            <mxPoint x="820" y="30" as="sourcePoint" />
            <mxPoint x="820" y="70" as="targetPoint" />
          </mxGeometry>
        </mxCell>
        <mxCell id="xaQ81cR3nCLJtU9Fbe_--337" value="" style="endArrow=classic;html=1;rounded=0;" edge="1" parent="xaQ81cR3nCLJtU9Fbe_--389">
          <mxGeometry width="50" height="50" relative="1" as="geometry">
            <mxPoint x="840" y="10" as="sourcePoint" />
            <mxPoint x="840" y="30" as="targetPoint" />
          </mxGeometry>
        </mxCell>
        <mxCell id="xaQ81cR3nCLJtU9Fbe_--338" value="" style="endArrow=classic;html=1;rounded=0;" edge="1" parent="xaQ81cR3nCLJtU9Fbe_--389">
          <mxGeometry width="50" height="50" relative="1" as="geometry">
            <mxPoint x="840" y="50" as="sourcePoint" />
            <mxPoint x="840" y="70" as="targetPoint" />
          </mxGeometry>
        </mxCell>
        <mxCell id="xaQ81cR3nCLJtU9Fbe_--339" value="" style="endArrow=classic;html=1;rounded=0;" edge="1" parent="xaQ81cR3nCLJtU9Fbe_--389">
          <mxGeometry width="50" height="50" relative="1" as="geometry">
            <mxPoint x="810" y="90" as="sourcePoint" />
            <mxPoint x="810" y="130" as="targetPoint" />
          </mxGeometry>
        </mxCell>
        <mxCell id="xaQ81cR3nCLJtU9Fbe_--340" value="" style="endArrow=classic;html=1;rounded=0;" edge="1" parent="xaQ81cR3nCLJtU9Fbe_--389">
          <mxGeometry width="50" height="50" relative="1" as="geometry">
            <mxPoint x="820" y="110" as="sourcePoint" />
            <mxPoint x="820" y="150" as="targetPoint" />
          </mxGeometry>
        </mxCell>
        <mxCell id="xaQ81cR3nCLJtU9Fbe_--341" value="" style="endArrow=classic;html=1;rounded=0;" edge="1" parent="xaQ81cR3nCLJtU9Fbe_--389">
          <mxGeometry width="50" height="50" relative="1" as="geometry">
            <mxPoint x="840" y="90" as="sourcePoint" />
            <mxPoint x="840" y="110" as="targetPoint" />
          </mxGeometry>
        </mxCell>
        <mxCell id="xaQ81cR3nCLJtU9Fbe_--342" value="" style="endArrow=classic;html=1;rounded=0;" edge="1" parent="xaQ81cR3nCLJtU9Fbe_--389">
          <mxGeometry width="50" height="50" relative="1" as="geometry">
            <mxPoint x="840" y="130" as="sourcePoint" />
            <mxPoint x="840" y="150" as="targetPoint" />
          </mxGeometry>
        </mxCell>
        <mxCell id="xaQ81cR3nCLJtU9Fbe_--343" value="" style="endArrow=classic;html=1;rounded=0;" edge="1" parent="xaQ81cR3nCLJtU9Fbe_--389">
          <mxGeometry width="50" height="50" relative="1" as="geometry">
            <mxPoint x="760" y="170" as="sourcePoint" />
            <mxPoint x="760" y="250" as="targetPoint" />
          </mxGeometry>
        </mxCell>
        <mxCell id="xaQ81cR3nCLJtU9Fbe_--344" value="" style="endArrow=classic;html=1;rounded=0;" edge="1" parent="xaQ81cR3nCLJtU9Fbe_--389">
          <mxGeometry width="50" height="50" relative="1" as="geometry">
            <mxPoint x="770" y="190" as="sourcePoint" />
            <mxPoint x="770" y="270" as="targetPoint" />
          </mxGeometry>
        </mxCell>
        <mxCell id="xaQ81cR3nCLJtU9Fbe_--345" value="" style="endArrow=classic;html=1;rounded=0;" edge="1" parent="xaQ81cR3nCLJtU9Fbe_--389">
          <mxGeometry width="50" height="50" relative="1" as="geometry">
            <mxPoint x="780" y="210" as="sourcePoint" />
            <mxPoint x="780" y="290" as="targetPoint" />
          </mxGeometry>
        </mxCell>
        <mxCell id="xaQ81cR3nCLJtU9Fbe_--346" value="" style="endArrow=classic;html=1;rounded=0;" edge="1" parent="xaQ81cR3nCLJtU9Fbe_--389">
          <mxGeometry width="50" height="50" relative="1" as="geometry">
            <mxPoint x="790" y="230" as="sourcePoint" />
            <mxPoint x="790" y="310" as="targetPoint" />
          </mxGeometry>
        </mxCell>
        <mxCell id="xaQ81cR3nCLJtU9Fbe_--347" value="" style="endArrow=classic;html=1;rounded=0;" edge="1" parent="xaQ81cR3nCLJtU9Fbe_--389">
          <mxGeometry width="50" height="50" relative="1" as="geometry">
            <mxPoint x="810" y="170" as="sourcePoint" />
            <mxPoint x="810" y="210" as="targetPoint" />
          </mxGeometry>
        </mxCell>
        <mxCell id="xaQ81cR3nCLJtU9Fbe_--348" value="" style="endArrow=classic;html=1;rounded=0;" edge="1" parent="xaQ81cR3nCLJtU9Fbe_--389">
          <mxGeometry width="50" height="50" relative="1" as="geometry">
            <mxPoint x="820" y="190" as="sourcePoint" />
            <mxPoint x="820" y="230" as="targetPoint" />
          </mxGeometry>
        </mxCell>
        <mxCell id="xaQ81cR3nCLJtU9Fbe_--349" value="" style="endArrow=classic;html=1;rounded=0;" edge="1" parent="xaQ81cR3nCLJtU9Fbe_--389">
          <mxGeometry width="50" height="50" relative="1" as="geometry">
            <mxPoint x="840" y="170" as="sourcePoint" />
            <mxPoint x="840" y="190" as="targetPoint" />
          </mxGeometry>
        </mxCell>
        <mxCell id="xaQ81cR3nCLJtU9Fbe_--350" value="" style="endArrow=classic;html=1;rounded=0;" edge="1" parent="xaQ81cR3nCLJtU9Fbe_--389">
          <mxGeometry width="50" height="50" relative="1" as="geometry">
            <mxPoint x="840" y="210" as="sourcePoint" />
            <mxPoint x="840" y="230" as="targetPoint" />
          </mxGeometry>
        </mxCell>
        <mxCell id="xaQ81cR3nCLJtU9Fbe_--351" value="" style="endArrow=classic;html=1;rounded=0;" edge="1" parent="xaQ81cR3nCLJtU9Fbe_--389">
          <mxGeometry width="50" height="50" relative="1" as="geometry">
            <mxPoint x="810" y="250" as="sourcePoint" />
            <mxPoint x="810" y="290" as="targetPoint" />
          </mxGeometry>
        </mxCell>
        <mxCell id="xaQ81cR3nCLJtU9Fbe_--352" value="" style="endArrow=classic;html=1;rounded=0;" edge="1" parent="xaQ81cR3nCLJtU9Fbe_--389">
          <mxGeometry width="50" height="50" relative="1" as="geometry">
            <mxPoint x="820" y="270" as="sourcePoint" />
            <mxPoint x="820" y="310" as="targetPoint" />
          </mxGeometry>
        </mxCell>
        <mxCell id="xaQ81cR3nCLJtU9Fbe_--353" value="" style="endArrow=classic;html=1;rounded=0;" edge="1" parent="xaQ81cR3nCLJtU9Fbe_--389">
          <mxGeometry width="50" height="50" relative="1" as="geometry">
            <mxPoint x="840" y="250" as="sourcePoint" />
            <mxPoint x="840" y="270" as="targetPoint" />
          </mxGeometry>
        </mxCell>
        <mxCell id="xaQ81cR3nCLJtU9Fbe_--354" value="" style="endArrow=classic;html=1;rounded=0;" edge="1" parent="xaQ81cR3nCLJtU9Fbe_--389">
          <mxGeometry width="50" height="50" relative="1" as="geometry">
            <mxPoint x="840" y="290" as="sourcePoint" />
            <mxPoint x="840" y="310" as="targetPoint" />
          </mxGeometry>
        </mxCell>
        <mxCell id="xaQ81cR3nCLJtU9Fbe_--355" value="" style="endArrow=classic;html=1;rounded=0;" edge="1" parent="xaQ81cR3nCLJtU9Fbe_--389">
          <mxGeometry width="50" height="50" relative="1" as="geometry">
            <mxPoint x="680" y="350" as="sourcePoint" />
            <mxPoint x="680" y="510" as="targetPoint" />
          </mxGeometry>
        </mxCell>
        <mxCell id="xaQ81cR3nCLJtU9Fbe_--356" value="" style="endArrow=classic;html=1;rounded=0;" edge="1" parent="xaQ81cR3nCLJtU9Fbe_--389">
          <mxGeometry width="50" height="50" relative="1" as="geometry">
            <mxPoint x="670" y="330" as="sourcePoint" />
            <mxPoint x="670" y="490" as="targetPoint" />
          </mxGeometry>
        </mxCell>
        <mxCell id="xaQ81cR3nCLJtU9Fbe_--357" value="" style="endArrow=classic;html=1;rounded=0;" edge="1" parent="xaQ81cR3nCLJtU9Fbe_--389">
          <mxGeometry width="50" height="50" relative="1" as="geometry">
            <mxPoint x="690" y="370" as="sourcePoint" />
            <mxPoint x="690" y="530" as="targetPoint" />
          </mxGeometry>
        </mxCell>
        <mxCell id="xaQ81cR3nCLJtU9Fbe_--358" value="" style="endArrow=classic;html=1;rounded=0;" edge="1" parent="xaQ81cR3nCLJtU9Fbe_--389">
          <mxGeometry width="50" height="50" relative="1" as="geometry">
            <mxPoint x="700" y="390" as="sourcePoint" />
            <mxPoint x="700" y="550" as="targetPoint" />
          </mxGeometry>
        </mxCell>
        <mxCell id="xaQ81cR3nCLJtU9Fbe_--359" value="" style="endArrow=classic;html=1;rounded=0;" edge="1" parent="xaQ81cR3nCLJtU9Fbe_--389">
          <mxGeometry width="50" height="50" relative="1" as="geometry">
            <mxPoint x="710" y="410" as="sourcePoint" />
            <mxPoint x="710" y="570" as="targetPoint" />
          </mxGeometry>
        </mxCell>
        <mxCell id="xaQ81cR3nCLJtU9Fbe_--360" value="" style="endArrow=classic;html=1;rounded=0;" edge="1" parent="xaQ81cR3nCLJtU9Fbe_--389">
          <mxGeometry width="50" height="50" relative="1" as="geometry">
            <mxPoint x="720" y="430" as="sourcePoint" />
            <mxPoint x="720" y="590" as="targetPoint" />
          </mxGeometry>
        </mxCell>
        <mxCell id="xaQ81cR3nCLJtU9Fbe_--361" value="" style="endArrow=classic;html=1;rounded=0;" edge="1" parent="xaQ81cR3nCLJtU9Fbe_--389">
          <mxGeometry width="50" height="50" relative="1" as="geometry">
            <mxPoint x="730" y="450" as="sourcePoint" />
            <mxPoint x="730" y="610" as="targetPoint" />
          </mxGeometry>
        </mxCell>
        <mxCell id="xaQ81cR3nCLJtU9Fbe_--362" value="" style="endArrow=classic;html=1;rounded=0;" edge="1" parent="xaQ81cR3nCLJtU9Fbe_--389">
          <mxGeometry width="50" height="50" relative="1" as="geometry">
            <mxPoint x="740" y="470" as="sourcePoint" />
            <mxPoint x="740" y="630" as="targetPoint" />
          </mxGeometry>
        </mxCell>
        <mxCell id="xaQ81cR3nCLJtU9Fbe_--363" value="" style="endArrow=classic;html=1;rounded=0;" edge="1" parent="xaQ81cR3nCLJtU9Fbe_--389">
          <mxGeometry width="50" height="50" relative="1" as="geometry">
            <mxPoint x="760" y="330" as="sourcePoint" />
            <mxPoint x="760" y="410" as="targetPoint" />
          </mxGeometry>
        </mxCell>
        <mxCell id="xaQ81cR3nCLJtU9Fbe_--364" value="" style="endArrow=classic;html=1;rounded=0;" edge="1" parent="xaQ81cR3nCLJtU9Fbe_--389">
          <mxGeometry width="50" height="50" relative="1" as="geometry">
            <mxPoint x="770" y="350" as="sourcePoint" />
            <mxPoint x="770" y="430" as="targetPoint" />
          </mxGeometry>
        </mxCell>
        <mxCell id="xaQ81cR3nCLJtU9Fbe_--365" value="" style="endArrow=classic;html=1;rounded=0;" edge="1" parent="xaQ81cR3nCLJtU9Fbe_--389">
          <mxGeometry width="50" height="50" relative="1" as="geometry">
            <mxPoint x="780" y="370" as="sourcePoint" />
            <mxPoint x="780" y="450" as="targetPoint" />
          </mxGeometry>
        </mxCell>
        <mxCell id="xaQ81cR3nCLJtU9Fbe_--366" value="" style="endArrow=classic;html=1;rounded=0;" edge="1" parent="xaQ81cR3nCLJtU9Fbe_--389">
          <mxGeometry width="50" height="50" relative="1" as="geometry">
            <mxPoint x="790" y="390" as="sourcePoint" />
            <mxPoint x="790" y="470" as="targetPoint" />
          </mxGeometry>
        </mxCell>
        <mxCell id="xaQ81cR3nCLJtU9Fbe_--367" value="" style="endArrow=classic;html=1;rounded=0;" edge="1" parent="xaQ81cR3nCLJtU9Fbe_--389">
          <mxGeometry width="50" height="50" relative="1" as="geometry">
            <mxPoint x="810" y="330" as="sourcePoint" />
            <mxPoint x="810" y="370" as="targetPoint" />
          </mxGeometry>
        </mxCell>
        <mxCell id="xaQ81cR3nCLJtU9Fbe_--368" value="" style="endArrow=classic;html=1;rounded=0;" edge="1" parent="xaQ81cR3nCLJtU9Fbe_--389">
          <mxGeometry width="50" height="50" relative="1" as="geometry">
            <mxPoint x="820" y="350" as="sourcePoint" />
            <mxPoint x="820" y="390" as="targetPoint" />
          </mxGeometry>
        </mxCell>
        <mxCell id="xaQ81cR3nCLJtU9Fbe_--369" value="" style="endArrow=classic;html=1;rounded=0;" edge="1" parent="xaQ81cR3nCLJtU9Fbe_--389">
          <mxGeometry width="50" height="50" relative="1" as="geometry">
            <mxPoint x="840" y="330" as="sourcePoint" />
            <mxPoint x="840" y="350" as="targetPoint" />
          </mxGeometry>
        </mxCell>
        <mxCell id="xaQ81cR3nCLJtU9Fbe_--370" value="" style="endArrow=classic;html=1;rounded=0;" edge="1" parent="xaQ81cR3nCLJtU9Fbe_--389">
          <mxGeometry width="50" height="50" relative="1" as="geometry">
            <mxPoint x="840" y="370" as="sourcePoint" />
            <mxPoint x="840" y="390" as="targetPoint" />
          </mxGeometry>
        </mxCell>
        <mxCell id="xaQ81cR3nCLJtU9Fbe_--371" value="" style="endArrow=classic;html=1;rounded=0;" edge="1" parent="xaQ81cR3nCLJtU9Fbe_--389">
          <mxGeometry width="50" height="50" relative="1" as="geometry">
            <mxPoint x="810" y="410" as="sourcePoint" />
            <mxPoint x="810" y="450" as="targetPoint" />
          </mxGeometry>
        </mxCell>
        <mxCell id="xaQ81cR3nCLJtU9Fbe_--372" value="" style="endArrow=classic;html=1;rounded=0;" edge="1" parent="xaQ81cR3nCLJtU9Fbe_--389">
          <mxGeometry width="50" height="50" relative="1" as="geometry">
            <mxPoint x="820" y="430" as="sourcePoint" />
            <mxPoint x="820" y="470" as="targetPoint" />
          </mxGeometry>
        </mxCell>
        <mxCell id="xaQ81cR3nCLJtU9Fbe_--373" value="" style="endArrow=classic;html=1;rounded=0;" edge="1" parent="xaQ81cR3nCLJtU9Fbe_--389">
          <mxGeometry width="50" height="50" relative="1" as="geometry">
            <mxPoint x="840" y="410" as="sourcePoint" />
            <mxPoint x="840" y="430" as="targetPoint" />
          </mxGeometry>
        </mxCell>
        <mxCell id="xaQ81cR3nCLJtU9Fbe_--374" value="" style="endArrow=classic;html=1;rounded=0;" edge="1" parent="xaQ81cR3nCLJtU9Fbe_--389">
          <mxGeometry width="50" height="50" relative="1" as="geometry">
            <mxPoint x="840" y="450" as="sourcePoint" />
            <mxPoint x="840" y="470" as="targetPoint" />
          </mxGeometry>
        </mxCell>
        <mxCell id="xaQ81cR3nCLJtU9Fbe_--375" value="" style="endArrow=classic;html=1;rounded=0;" edge="1" parent="xaQ81cR3nCLJtU9Fbe_--389">
          <mxGeometry width="50" height="50" relative="1" as="geometry">
            <mxPoint x="760" y="490" as="sourcePoint" />
            <mxPoint x="760" y="570" as="targetPoint" />
          </mxGeometry>
        </mxCell>
        <mxCell id="xaQ81cR3nCLJtU9Fbe_--376" value="" style="endArrow=classic;html=1;rounded=0;" edge="1" parent="xaQ81cR3nCLJtU9Fbe_--389">
          <mxGeometry width="50" height="50" relative="1" as="geometry">
            <mxPoint x="770" y="510" as="sourcePoint" />
            <mxPoint x="770" y="590" as="targetPoint" />
          </mxGeometry>
        </mxCell>
        <mxCell id="xaQ81cR3nCLJtU9Fbe_--377" value="" style="endArrow=classic;html=1;rounded=0;" edge="1" parent="xaQ81cR3nCLJtU9Fbe_--389">
          <mxGeometry width="50" height="50" relative="1" as="geometry">
            <mxPoint x="780" y="530" as="sourcePoint" />
            <mxPoint x="780" y="610" as="targetPoint" />
          </mxGeometry>
        </mxCell>
        <mxCell id="xaQ81cR3nCLJtU9Fbe_--378" value="" style="endArrow=classic;html=1;rounded=0;" edge="1" parent="xaQ81cR3nCLJtU9Fbe_--389">
          <mxGeometry width="50" height="50" relative="1" as="geometry">
            <mxPoint x="790" y="550" as="sourcePoint" />
            <mxPoint x="790" y="630" as="targetPoint" />
          </mxGeometry>
        </mxCell>
        <mxCell id="xaQ81cR3nCLJtU9Fbe_--379" value="" style="endArrow=classic;html=1;rounded=0;" edge="1" parent="xaQ81cR3nCLJtU9Fbe_--389">
          <mxGeometry width="50" height="50" relative="1" as="geometry">
            <mxPoint x="810" y="490" as="sourcePoint" />
            <mxPoint x="810" y="530" as="targetPoint" />
          </mxGeometry>
        </mxCell>
        <mxCell id="xaQ81cR3nCLJtU9Fbe_--380" value="" style="endArrow=classic;html=1;rounded=0;" edge="1" parent="xaQ81cR3nCLJtU9Fbe_--389">
          <mxGeometry width="50" height="50" relative="1" as="geometry">
            <mxPoint x="820" y="510" as="sourcePoint" />
            <mxPoint x="820" y="550" as="targetPoint" />
          </mxGeometry>
        </mxCell>
        <mxCell id="xaQ81cR3nCLJtU9Fbe_--381" value="" style="endArrow=classic;html=1;rounded=0;" edge="1" parent="xaQ81cR3nCLJtU9Fbe_--389">
          <mxGeometry width="50" height="50" relative="1" as="geometry">
            <mxPoint x="840" y="490" as="sourcePoint" />
            <mxPoint x="840" y="510" as="targetPoint" />
          </mxGeometry>
        </mxCell>
        <mxCell id="xaQ81cR3nCLJtU9Fbe_--382" value="" style="endArrow=classic;html=1;rounded=0;" edge="1" parent="xaQ81cR3nCLJtU9Fbe_--389">
          <mxGeometry width="50" height="50" relative="1" as="geometry">
            <mxPoint x="840" y="530" as="sourcePoint" />
            <mxPoint x="840" y="550" as="targetPoint" />
          </mxGeometry>
        </mxCell>
        <mxCell id="xaQ81cR3nCLJtU9Fbe_--383" value="" style="endArrow=classic;html=1;rounded=0;" edge="1" parent="xaQ81cR3nCLJtU9Fbe_--389">
          <mxGeometry width="50" height="50" relative="1" as="geometry">
            <mxPoint x="810" y="570" as="sourcePoint" />
            <mxPoint x="810" y="610" as="targetPoint" />
          </mxGeometry>
        </mxCell>
        <mxCell id="xaQ81cR3nCLJtU9Fbe_--384" value="" style="endArrow=classic;html=1;rounded=0;" edge="1" parent="xaQ81cR3nCLJtU9Fbe_--389">
          <mxGeometry width="50" height="50" relative="1" as="geometry">
            <mxPoint x="820" y="590" as="sourcePoint" />
            <mxPoint x="820" y="630" as="targetPoint" />
          </mxGeometry>
        </mxCell>
        <mxCell id="xaQ81cR3nCLJtU9Fbe_--385" value="" style="endArrow=classic;html=1;rounded=0;" edge="1" parent="xaQ81cR3nCLJtU9Fbe_--389">
          <mxGeometry width="50" height="50" relative="1" as="geometry">
            <mxPoint x="840" y="570" as="sourcePoint" />
            <mxPoint x="840" y="590" as="targetPoint" />
          </mxGeometry>
        </mxCell>
        <mxCell id="xaQ81cR3nCLJtU9Fbe_--386" value="" style="endArrow=classic;html=1;rounded=0;" edge="1" parent="xaQ81cR3nCLJtU9Fbe_--389">
          <mxGeometry width="50" height="50" relative="1" as="geometry">
            <mxPoint x="840" y="610" as="sourcePoint" />
            <mxPoint x="840" y="630" as="targetPoint" />
          </mxGeometry>
        </mxCell>
        <mxCell id="xaQ81cR3nCLJtU9Fbe_--719" value="3" style="rounded=0;whiteSpace=wrap;html=1;fillColor=#f8cecc;strokeColor=#b85450;" vertex="1" parent="xaQ81cR3nCLJtU9Fbe_--389">
          <mxGeometry x="90" y="650" width="20" height="20" as="geometry" />
        </mxCell>
        <mxCell id="xaQ81cR3nCLJtU9Fbe_--720" value="4" style="rounded=0;whiteSpace=wrap;html=1;fillColor=#f8cecc;strokeColor=#b85450;" vertex="1" parent="xaQ81cR3nCLJtU9Fbe_--389">
          <mxGeometry x="110" y="650" width="80" height="20" as="geometry" />
        </mxCell>
        <mxCell id="xaQ81cR3nCLJtU9Fbe_--721" value="5" style="rounded=0;whiteSpace=wrap;html=1;fillColor=#f8cecc;strokeColor=#b85450;" vertex="1" parent="xaQ81cR3nCLJtU9Fbe_--389">
          <mxGeometry x="190" y="650" width="30" height="20" as="geometry" />
        </mxCell>
        <mxCell id="xaQ81cR3nCLJtU9Fbe_--722" value="6" style="rounded=0;whiteSpace=wrap;html=1;fillColor=#f8cecc;strokeColor=#b85450;" vertex="1" parent="xaQ81cR3nCLJtU9Fbe_--389">
          <mxGeometry x="220" y="650" width="20" height="20" as="geometry" />
        </mxCell>
        <mxCell id="xaQ81cR3nCLJtU9Fbe_--723" value="7" style="rounded=0;whiteSpace=wrap;html=1;fillColor=#f8cecc;strokeColor=#b85450;" vertex="1" parent="xaQ81cR3nCLJtU9Fbe_--389">
          <mxGeometry x="240" y="650" width="120" height="20" as="geometry" />
        </mxCell>
        <mxCell id="xaQ81cR3nCLJtU9Fbe_--724" value="8" style="rounded=0;whiteSpace=wrap;html=1;fillColor=#f8cecc;strokeColor=#b85450;" vertex="1" parent="xaQ81cR3nCLJtU9Fbe_--389">
          <mxGeometry x="360" y="650" width="50" height="20" as="geometry" />
        </mxCell>
        <mxCell id="xaQ81cR3nCLJtU9Fbe_--727" value="9" style="rounded=0;whiteSpace=wrap;html=1;fillColor=#f8cecc;strokeColor=#b85450;" vertex="1" parent="xaQ81cR3nCLJtU9Fbe_--389">
          <mxGeometry x="410" y="650" width="30" height="20" as="geometry" />
        </mxCell>
        <mxCell id="xaQ81cR3nCLJtU9Fbe_--728" value="10" style="rounded=0;whiteSpace=wrap;html=1;fillColor=#f8cecc;strokeColor=#b85450;" vertex="1" parent="xaQ81cR3nCLJtU9Fbe_--389">
          <mxGeometry x="440" y="650" width="20" height="20" as="geometry" />
        </mxCell>
        <mxCell id="xaQ81cR3nCLJtU9Fbe_--729" value="11" style="rounded=0;whiteSpace=wrap;html=1;fillColor=#f8cecc;strokeColor=#b85450;" vertex="1" parent="xaQ81cR3nCLJtU9Fbe_--389">
          <mxGeometry x="460" y="650" width="200" height="20" as="geometry" />
        </mxCell>
        <mxCell id="xaQ81cR3nCLJtU9Fbe_--730" value="12" style="rounded=0;whiteSpace=wrap;html=1;fillColor=#f8cecc;strokeColor=#b85450;" vertex="1" parent="xaQ81cR3nCLJtU9Fbe_--389">
          <mxGeometry x="660" y="650" width="90" height="20" as="geometry" />
        </mxCell>
        <mxCell id="xaQ81cR3nCLJtU9Fbe_--731" value="13" style="rounded=0;whiteSpace=wrap;html=1;fillColor=#f8cecc;strokeColor=#b85450;" vertex="1" parent="xaQ81cR3nCLJtU9Fbe_--389">
          <mxGeometry x="750" y="650" width="50" height="20" as="geometry" />
        </mxCell>
        <mxCell id="xaQ81cR3nCLJtU9Fbe_--732" value="14" style="rounded=0;whiteSpace=wrap;html=1;fillColor=#f8cecc;strokeColor=#b85450;" vertex="1" parent="xaQ81cR3nCLJtU9Fbe_--389">
          <mxGeometry x="800" y="650" width="30" height="20" as="geometry" />
        </mxCell>
        <mxCell id="xaQ81cR3nCLJtU9Fbe_--733" value="15" style="rounded=0;whiteSpace=wrap;html=1;fillColor=#f8cecc;strokeColor=#b85450;" vertex="1" parent="xaQ81cR3nCLJtU9Fbe_--389">
          <mxGeometry x="830" y="650" width="40" height="20" as="geometry" />
        </mxCell>
        <mxCell id="xaQ81cR3nCLJtU9Fbe_--716" value="Cycle" style="text;html=1;strokeColor=none;fillColor=none;align=center;verticalAlign=middle;whiteSpace=wrap;rounded=0;" vertex="1" parent="1">
          <mxGeometry x="40" y="885" width="60" height="30" as="geometry" />
        </mxCell>
      </root>
    </mxGraphModel>
  </diagram>
</mxfile>
